<?xml version="1.0" encoding="utf-8"?>
<!-- Generator: Adobe Illustrator 19.1.0, SVG Export Plug-In . SVG Version: 6.00 Build 0)  -->
<svg version="1.1" id="Layer_1" xmlns="http://www.w3.org/2000/svg" xmlns:xlink="http://www.w3.org/1999/xlink" x="0px" y="0px"
	 viewBox="0 0 100.1 95.9" style="enable-background:new 0 0 100.1 95.9;" xml:space="preserve">
<style type="text/css">
	.st0{fill:#F3969A;}
	.st1{fill:#DC8537;}
	.st2{fill:none;stroke:#F3969A;stroke-miterlimit:10;}
	.st3{fill:none;stroke:#F3969A;stroke-linecap:round;stroke-miterlimit:10;}
	.st4{fill:#55B599;}
	.st5{fill:#6CC3D5;}
	.st6{fill:#F29699;}
	.st7{fill:#F8F9FA;}
	.st8{fill:#FFFFFF;}
	.st9{fill:#EE6356;}
	.st10{fill:#EDC233;}
</style>
<g>
	<g>
		<path class="st5" d="M9.9,77.6c2.8,2.4,6.7,3.1,10.3,1.6l65.5-27.8c3.6-1.5,5.8-4.9,6-8.5L9.9,77.6z"/>
	</g>
</g>
<path class="st5" d="M12.5,60.9l1.1-0.5c4.8-2.1,8.9-5.6,11.6-10.1c0-0.1,0.1-0.1,0.2-0.1l8.4,3.5c1.4,0.6,3-0.1,3.5-1.5
	c0.6-1.4-0.1-3-1.5-3.5l0,0l-7.9-3.2c-0.1,0-0.1-0.1-0.1-0.2l1.7-3.4c0-0.1,0.1-0.1,0.2-0.1l8.9,3.6l0,0c1.4,0.6,3-0.1,3.5-1.4
	c0.6-1.4-0.1-2.9-1.5-3.5l0,0l-8.4-3.4C32,37.2,32,37.1,32,37l1.7-3.4c0-0.1,0.1-0.1,0.2-0.1l8.9,3.6c1.4,0.6,3-0.1,3.5-1.5
	c0.5-1.2,0-2.7-1.2-3.3l-8.8-3.6c-0.1,0-0.1-0.1-0.1-0.2l3.5-6.9c0.9-1.7,2.8-2.7,4.8-2.2c1.4,0.3,2.4,1.4,3,2.7l0.6,1.3
	c2.4,5.6,7.8,9.4,13.8,9c7.4-0.5,12.8-6.4,13-13.3l0.1-1.5c0.1-1.8,1.5-3.3,3.5-3.3c1.4,0,2.6,1,3.1,2.3l8.8,20.6
	c0,0.1,0,0.2-0.1,0.2L7.1,73c-0.1,0-0.2,0-0.2-0.1C5.4,68.1,7.8,62.9,12.5,60.9z"/>
</svg>
