<?xml version="1.0" encoding="utf-8"?>
<!-- Generator: Adobe Illustrator 19.1.0, SVG Export Plug-In . SVG Version: 6.00 Build 0)  -->
<svg version="1.1" id="Layer_1" xmlns="http://www.w3.org/2000/svg" xmlns:xlink="http://www.w3.org/1999/xlink" x="0px" y="0px"
	 viewBox="0 0 100.1 95.9" style="enable-background:new 0 0 100.1 95.9;" xml:space="preserve">
<style type="text/css">
	.st0{fill:#F3969A;}
	.st1{fill:#DC8537;}
	.st2{fill:none;stroke:#F3969A;stroke-miterlimit:10;}
	.st3{fill:none;stroke:#F3969A;stroke-linecap:round;stroke-miterlimit:10;}
	.st4{fill:#55B599;}
	.st5{fill:#6CC3D5;}
	.st6{fill:#F29699;}
	.st7{fill:#F8F9FA;}
	.st8{fill:#FFFFFF;}
	.st9{fill:#EE6356;}
	.st10{fill:#EDC233;}
</style>
<path class="st8" d="M94.7,78.5c-6.6-5.2-0.6-17.9-0.6-17.9c12-30.7-8.8-46.2-12.4-48.2c-7.3-4.1-24.5-8.1-33.2,2.9
	c-2.5,3.1-1.6,7-0.5,9.7c2.9,7,10.8,13.3,17.5,14c1.9,0.2,3.3-0.2,4.3-1.3c3-3.5,1.4-12.7,0.6-16c-0.2-0.9,0.3-1.8,1.2-2
	c0.3-0.1,0.5-0.1,0.8,0c0.6,0.1,1.1,0.6,1.3,1.2c0.4,1.4,3.4,13.5-1.2,19c-1,1.2-2.9,2.5-5.9,2.5c-0.4,0-0.8,0-1.2-0.1
	c-7.9-0.9-16.8-7.9-20.2-16c-0.9-2-1.3-4-1.3-5.9c-19,0-40.7,10.6-42.2,29.7c0,0.6,0.3,1.2,0.9,1.4c0.6,0.2,1.2,0,1.6-0.5
	c1.2-1.8,2.6-3.8,4.1-5.1c0.2,3,1.1,5.9,2.7,8.5c3.2,5.2,4.8,11.3,4.8,17.4l0,11.3c0.2,1.4,3.4,2.5,7.5,2.5c4,0,7.3-1.1,7.5-2.5
	l0-7.3c0-1.9,0.8-3.8,2.2-5.1c1.4-1.3,3.3-1.8,5.2-1.8c1.2,0,3.6,0,3.8,0c1.8,0,3.6,0.8,4.9,2.1c1.3,1.3,2.1,3.1,2.1,4.9l0,7.2
	c0.2,1.4,3.4,2.5,7.5,2.5c4,0,7.3-1.1,7.5-2.5l0-6.3c0-18.8,13.8-27.2,15.4-28.2c8.1-4.9,4.5,10,4.5,10c-5.4,16.8,7.1,24.5,7.1,24.5
	l0.1-0.1c0,0,0,0.1,0.1,0.1c0.8,0.6,2.3,0,3.2-1.3C95.1,80.6,95.2,79.3,94.7,78.5L94.7,78.5z"/>
</svg>
