<?xml version="1.0" encoding="utf-8"?>
<!-- Generator: Adobe Illustrator 19.1.0, SVG Export Plug-In . SVG Version: 6.00 Build 0)  -->
<svg version="1.1" id="Layer_1" xmlns="http://www.w3.org/2000/svg" xmlns:xlink="http://www.w3.org/1999/xlink" x="0px" y="0px"
	 viewBox="0 0 100.1 95.9" style="enable-background:new 0 0 100.1 95.9;" xml:space="preserve">
<style type="text/css">
	.st0{fill:#F3969A;}
	.st1{fill:#DC8537;}
	.st2{fill:none;stroke:#F3969A;stroke-miterlimit:10;}
	.st3{fill:none;stroke:#F3969A;stroke-linecap:round;stroke-miterlimit:10;}
	.st4{fill:#55B599;}
	.st5{fill:#6CC3D5;}
	.st6{fill:#F29699;}
	.st7{fill:#F8F9FA;}
	.st8{fill:#FFFFFF;}
	.st9{fill:#EE6356;}
	.st10{fill:#EDC233;}
</style>
<g>
	<g>
		<g>
			<path class="st8" d="M40.2,59c-3.3-3.3-8.9-4.8-14-2.7c-4.5,2-7.5,6.6-7.5,11.6c0,5.5-1,10-1.9,11.5l-1.8,3l3.5,0.2
				c0.8,0.1,1.7,0.1,2.7,0.1c6.7,0,15-1.7,19.4-5.8C44.8,72.8,45.3,64.1,40.2,59z"/>
		</g>
	</g>
	<g>
		<g>
			<path class="st8" d="M49.1,50.1c-2.1-2.1-4.4-3.7-6.8-4.8c-2.1,2.2-4.2,4.4-6.2,6.6c2.6,0.7,5,2.1,7.1,4.1c2,2,3.5,4.5,4.2,7.3
				c2.2-2,4.4-4,6.6-6.1C52.9,54.6,51.2,52.1,49.1,50.1z"/>
		</g>
	</g>
	<g>
		<g>
			<path class="st8" d="M85.6,12c-1.6-1.6-4.2-2.3-16.7,7.5c-7.5,5.8-15.2,14.3-23.3,22.5l-0.2,0.2l0,0l0,0c2.4,1.3,4.7,3,6.7,5
				c2.1,2,3.8,4.4,5.1,7l0.1-0.1l0,0l0.2-0.2c8.1-8.1,14.9-17.6,20.7-25.1C87.9,16.2,87.2,13.6,85.6,12z"/>
		</g>
	</g>
</g>
</svg>
