<?xml version="1.0" encoding="utf-8"?>
<!-- Generator: Adobe Illustrator 19.1.0, SVG Export Plug-In . SVG Version: 6.00 Build 0)  -->
<svg version="1.1" id="Layer_1" xmlns="http://www.w3.org/2000/svg" xmlns:xlink="http://www.w3.org/1999/xlink" x="0px" y="0px"
	 viewBox="0 0 79.1 95.9" style="enable-background:new 0 0 79.1 95.9;" xml:space="preserve">
<style type="text/css">
	.st0{fill:#F3969A;}
	.st1{fill:#DC8537;}
	.st2{fill:none;stroke:#F3969A;stroke-miterlimit:10;}
	.st3{fill:none;stroke:#F3969A;stroke-linecap:round;stroke-miterlimit:10;}
	.st4{fill:#55B599;}
	.st5{fill:#489AD8;}
	.st6{fill:#F29699;}
	.st7{fill:#6CC3D5;}
	.st8{fill:#F8F9FA;}
	.st9{fill:#FFFFFF;}
	.st10{fill:#EE6356;}
	.st11{fill:#EDC233;}
</style>
<g>
	<circle class="st9" cx="39.7" cy="38.3" r="24.7"/>
	<path class="st0" d="M71.9,19.6C65.8,9.5,54.3,1.7,42.3,1.4c-0.9,0-1.7-0.1-2.6-0.1l0,0c-0.8,0-1.7,0-2.6,0.1
		c-12,0.3-23.5,8.1-29.6,18.2c-4.7,7.8-6.4,17.3-5,26.3c1.4,8.8,6.6,16.7,12.3,23.4c7.6,8.9,16.8,16.1,24.9,24.5v0c0,0,0,0,0,0
		c0,0,0,0,0,0v0c8.1-8.4,17.3-15.6,24.9-24.5c5.7-6.7,10.8-14.6,12.3-23.4C78.3,36.9,76.6,27.4,71.9,19.6z M39.7,61.5
		c-12.8,0-23.2-10.4-23.2-23.2s10.4-23.2,23.2-23.2c12.8,0,23.2,10.4,23.2,23.2S52.4,61.5,39.7,61.5z"/>
	<g>
		<g>
			<path class="st0" d="M35.8,43.3c-1.2-1.2-3.2-1.7-5-1c-1.6,0.7-2.7,2.4-2.7,4.2c0,2-0.3,3.6-0.7,4.1l-0.7,1.1l1.3,0.1
				c0.3,0,0.6,0,1,0c2.4,0,5.4-0.6,7-2.1C37.5,48.3,37.7,45.2,35.8,43.3z"/>
		</g>
	</g>
	<g>
		<g>
			<path class="st0" d="M39.1,40.1c-0.7-0.7-1.6-1.3-2.5-1.7c-0.8,0.8-1.5,1.6-2.2,2.4c0.9,0.3,1.8,0.8,2.5,1.5
				c0.7,0.7,1.2,1.6,1.5,2.6c0.8-0.7,1.6-1.5,2.4-2.2C40.4,41.8,39.8,40.9,39.1,40.1z"/>
		</g>
	</g>
	<g>
		<g>
			<path class="st0" d="M52.3,26.4c-0.6-0.6-1.5-0.8-6,2.7c-2.7,2.1-5.5,5.2-8.4,8.1l-0.1,0.1l0,0l0,0c0.9,0.5,1.7,1.1,2.4,1.8
				c0.8,0.7,1.4,1.6,1.8,2.5l0,0l0,0l0.1-0.1c2.9-2.9,5.4-6.4,7.5-9.1C53.1,27.9,52.8,26.9,52.3,26.4z"/>
		</g>
	</g>
</g>
</svg>
