<?xml version="1.0" encoding="utf-8"?>
<!-- Generator: Adobe Illustrator 19.1.0, SVG Export Plug-In . SVG Version: 6.00 Build 0)  -->
<svg version="1.1" id="Layer_1" xmlns="http://www.w3.org/2000/svg" xmlns:xlink="http://www.w3.org/1999/xlink" x="0px" y="0px"
	 viewBox="0 0 100.1 95.9" style="enable-background:new 0 0 100.1 95.9;" xml:space="preserve">
<style type="text/css">
	.st0{fill:#F3969A;}
	.st1{fill:#DC8537;}
	.st2{fill:none;stroke:#F3969A;stroke-miterlimit:10;}
	.st3{fill:none;stroke:#F3969A;stroke-linecap:round;stroke-miterlimit:10;}
	.st4{fill:#55B599;}
	.st5{fill:#6CC3D5;}
	.st6{fill:#F29699;}
	.st7{fill:#F8F9FA;}
	.st8{fill:#FFFFFF;}
	.st9{fill:#EE6356;}
	.st10{fill:#EDC233;}
</style>
<g>
	<g>
		<path class="st5" d="M52,26.9c6.2,0,11.1-5.2,11.1-11.5c0-6.4-5-11.5-11.1-11.5c-6.2,0-11.1,5.2-11.1,11.5
			C40.8,21.7,45.8,26.9,52,26.9z"/>
		<path class="st5" d="M71.7,36.6c-0.6-1.7-3.7-6.8-12.3-6.8l-16.8,0c-8.3-0.5-11.6,4.5-12.2,6.6c0,0-5.6,17.9-4.7,22.1
			c0.5,2.2,3.7,4.7,7.5,6.9c1.3,0.7,1.9,2.3,1.5,3.7l-4.2,12.7c-0.7,2,0.8,4.1,3,4.1h36.1c2.1,0,3.6-2.1,3-4.1l-4.2-13.5
			c-0.4-1.4,0.2-2.9,1.4-3.6c3.3-2,5.9-4.3,6.4-6.2C77.4,54.4,71.7,36.6,71.7,36.6z M44.4,56.4c-0.8,0.3-1.6,0.5-2.5,0.5
			c-3.5,0-6.3-2.9-6.3-6.4c0-3.5,2.8-6.4,6.3-6.4c3.4,0,6.3,2.8,6.3,6.2c1.1-0.8,2.2-1.2,3-1.3c0,0,0,0,0,0c1.3-0.2,2.2,0,2.2,0
			c2.2,0.5,5.8,1.8,8.7,3c2.4,1,2.7,4.3,0.4,5.6c-2.4,1.4-5.6,2.6-9.7,2.6c-0.2,0-0.5,0-0.7,0h0c-0.8,0-1.6-0.1-2.3-0.2
			C45.7,59.6,44.5,58,44.4,56.4z"/>
	</g>
</g>
</svg>
