<?xml version="1.0" encoding="utf-8"?>
<!-- Generator: Adobe Illustrator 19.1.0, SVG Export Plug-In . SVG Version: 6.00 Build 0)  -->
<svg version="1.1" id="Layer_1" xmlns="http://www.w3.org/2000/svg" xmlns:xlink="http://www.w3.org/1999/xlink" x="0px" y="0px"
	 viewBox="0 0 79.1 95.9" style="enable-background:new 0 0 79.1 95.9;" xml:space="preserve">
<style type="text/css">
	.st0{fill:#F3969A;}
	.st1{fill:#DC8537;}
	.st2{fill:none;stroke:#F3969A;stroke-miterlimit:10;}
	.st3{fill:none;stroke:#F3969A;stroke-linecap:round;stroke-miterlimit:10;}
	.st4{fill:#55B599;}
	.st5{fill:#6CC3D5;}
	.st6{fill:#F29699;}
	.st7{fill:#F8F9FA;}
	.st8{fill:#FFFFFF;}
	.st9{fill:#EE6356;}
	.st10{fill:#EDC233;}
</style>
<g>
	<g>
		<path class="st8" d="M58.5,88.5c-2.8,0-5.6-1.6-6.9-4.1c-1.4-2.6-1.1-5.6-0.9-7.9l1.9-21c-0.1,0-0.1,0-0.2,0
			c-2.1-0.4-3.9-1.9-5-4.1c-0.8-1.7-1.2-3.6-1.2-5.7c-0.2-10.5-0.1-18.5,0.3-26c0.2-3.1,1.9-6.2,4.8-8.7c1.3-1.1,2.7-2,4.3-2.6
			c0,0,4.8-1.8,5.8-0.3l0.2,0.3l0,79.5l-0.9,0.3C60.1,88.4,59.3,88.5,58.5,88.5z"/>
	</g>
	<path class="st8" d="M37.5,30.2l-0.1-1.1c-0.2-4.7-0.4-9.3-0.7-14c-0.1-2.2-0.2-4.4-0.4-6.6c0-0.7-0.7-1.3-1.3-1.2
		c-0.7,0-1.2,0.6-1.2,1.3c0.1,2.2,0.2,4.4,0.4,6.6c0.2,4.4,0.2,8.7,0.4,13c-0.4,0.4-0.7,0.8-1.4,0.8c-0.7,0-1.3-0.3-1.8-0.8l0-19.3
		c0-0.7-0.6-1.4-1.3-1.4h0c-0.7,0-1.3,0.6-1.3,1.4l0,19.7c-0.4,0.2-0.8,0.4-1.3,0.4c-0.4,0-0.8-0.1-1.2-0.4l0-19.7
		c0-0.7-0.6-1.4-1.3-1.4c0,0,0,0,0,0c-0.7,0-1.3,0.6-1.3,1.4l0,19.3c-0.4,0.5-1.1,0.8-1.8,0.8c-0.7,0-1.1-0.3-1.6-0.8
		c0.2-4.4,0.2-8.8,0.4-13.2c0.1-2.2,0.2-4.4,0.4-6.5c0-0.7-0.5-1.3-1.2-1.3c-0.7-0.1-1.3,0.5-1.3,1.2c-0.1,2.2-0.2,4.4-0.4,6.5
		c-0.3,4.7-0.5,9.4-0.7,14.1l-0.1,1.1c0,0.9-0.1,2-0.1,3c0,0.1,0,0.1,0,0.2c0,0.1,0,0.2,0,0.3c0.1,2.6,0.5,5.2,2.1,7
		c1,1,2.2,1.7,3.8,1.9c-0.2,4-0.5,8-0.7,11.9c-0.6,8.7-1.2,17.6-1.2,26.4c0,2.4,0.8,4.5,2.1,5.9c1,1,2.4,1.6,3.8,1.6
		c1.5,0.1,3.1-0.5,4.2-1.6c1.4-1.4,2.1-3.5,2.1-5.9c-0.1-8.8-0.7-17.8-1.2-26.5c-0.3-4-0.5-8-0.7-11.9c1.6-0.2,2.8-0.8,3.8-1.9
		C37.9,38.1,37.6,33.5,37.5,30.2z"/>
</g>
</svg>
