<?xml version="1.0" encoding="utf-8"?>
<!-- Generator: Adobe Illustrator 19.1.0, SVG Export Plug-In . SVG Version: 6.00 Build 0)  -->
<svg version="1.1" id="Layer_1" xmlns="http://www.w3.org/2000/svg" xmlns:xlink="http://www.w3.org/1999/xlink" x="0px" y="0px"
	 viewBox="0 0 79.1 95.9" style="enable-background:new 0 0 79.1 95.9;" xml:space="preserve">
<style type="text/css">
	.st0{fill:#F3969A;}
	.st1{fill:#DC8537;}
	.st2{fill:none;stroke:#F3969A;stroke-miterlimit:10;}
	.st3{fill:none;stroke:#F3969A;stroke-linecap:round;stroke-miterlimit:10;}
	.st4{fill:#55B599;}
	.st5{fill:#489AD8;}
	.st6{fill:#F29699;}
	.st7{fill:#6CC3D5;}
	.st8{fill:#F8F9FA;}
	.st9{fill:#FFFFFF;}
	.st10{fill:#EE6356;}
	.st11{fill:#EDC233;}
</style>
<g>
	<circle class="st9" cx="40.1" cy="38.4" r="24.7"/>
	<path class="st0" d="M71.9,19.6C65.8,9.5,54.3,1.7,42.3,1.4c-0.9,0-1.7-0.1-2.6-0.1l0,0c-0.8,0-1.7,0-2.6,0.1
		c-12,0.3-23.5,8.1-29.6,18.2c-4.7,7.8-6.4,17.3-5,26.3c1.4,8.8,6.6,16.7,12.3,23.4c7.6,8.9,16.8,16.1,24.9,24.5v0c0,0,0,0,0,0
		c0,0,0,0,0,0v0c8.1-8.4,17.3-15.6,24.9-24.5c5.7-6.7,10.8-14.6,12.3-23.4C78.3,36.9,76.6,27.4,71.9,19.6z M39.7,61.5
		c-12.8,0-23.2-10.4-23.2-23.2s10.4-23.2,23.2-23.2c12.8,0,23.2,10.4,23.2,23.2S52.4,61.5,39.7,61.5z"/>
	<g>
		<path class="st0" d="M47.1,54.6c-1.1,0-2.2-0.6-2.7-1.6c-0.5-1-0.4-2.2-0.3-3.1l0.7-8.2c0,0,0,0-0.1,0c-0.8-0.2-1.5-0.8-1.9-1.6
			c-0.3-0.7-0.5-1.4-0.5-2.2c-0.1-4.1,0-7.3,0.1-10.2c0.1-1.2,0.7-2.4,1.9-3.4c0.5-0.4,1.1-0.8,1.7-1c0,0,1.9-0.7,2.3-0.1l0.1,0.1
			l0,31.2L48,54.5C47.7,54.6,47.4,54.6,47.1,54.6z"/>
	</g>
	<path class="st0" d="M38.8,31.8l0-0.4c-0.1-1.8-0.2-3.7-0.3-5.5c0-0.9-0.1-1.7-0.1-2.6c0-0.3-0.3-0.5-0.5-0.5
		c-0.3,0-0.5,0.2-0.5,0.5c0,0.9,0.1,1.7,0.1,2.6c0.1,1.7,0.1,3.4,0.1,5.1c-0.2,0.2-0.3,0.3-0.5,0.3c-0.3,0-0.5-0.1-0.7-0.3l0-7.5
		c0-0.3-0.2-0.5-0.5-0.5h0c-0.3,0-0.5,0.2-0.5,0.5l0,7.7c-0.1,0.1-0.3,0.2-0.5,0.2c-0.2,0-0.3-0.1-0.5-0.1l0-7.7
		c0-0.3-0.2-0.5-0.5-0.5c0,0,0,0,0,0c-0.3,0-0.5,0.2-0.5,0.5l0,7.5c-0.2,0.2-0.4,0.3-0.7,0.3c-0.3,0-0.4-0.1-0.6-0.3
		c0.1-1.7,0.1-3.5,0.2-5.2c0-0.9,0.1-1.7,0.1-2.6c0-0.3-0.2-0.5-0.5-0.5c-0.3,0-0.5,0.2-0.5,0.5c0,0.9-0.1,1.7-0.1,2.6
		c-0.1,1.8-0.2,3.7-0.3,5.5l0,0.4c0,0.4,0,0.8,0,1.2c0,0,0,0.1,0,0.1c0,0,0,0.1,0,0.1c0,1,0.2,2.1,0.8,2.8c0.4,0.4,0.9,0.7,1.5,0.7
		c-0.1,1.6-0.2,3.1-0.3,4.7c-0.2,3.4-0.5,6.9-0.5,10.4c0,0.9,0.3,1.8,0.8,2.3c0.4,0.4,0.9,0.6,1.5,0.6c0.6,0,1.2-0.2,1.6-0.6
		c0.5-0.5,0.8-1.4,0.8-2.3c0-3.5-0.3-7-0.5-10.4c-0.1-1.6-0.2-3.1-0.3-4.7c0.6-0.1,1.1-0.3,1.5-0.7C39,34.9,38.9,33.1,38.8,31.8z"/>
</g>
</svg>
