<?xml version="1.0" encoding="utf-8"?>
<!-- Generator: Adobe Illustrator 19.1.0, SVG Export Plug-In . SVG Version: 6.00 Build 0)  -->
<svg version="1.1" id="Layer_1" xmlns="http://www.w3.org/2000/svg" xmlns:xlink="http://www.w3.org/1999/xlink" x="0px" y="0px"
	 viewBox="0 0 79.1 95.9" style="enable-background:new 0 0 79.1 95.9;" xml:space="preserve">
<style type="text/css">
	.st0{fill:#F3969A;}
	.st1{fill:#DC8537;}
	.st2{fill:none;stroke:#F3969A;stroke-miterlimit:10;}
	.st3{fill:none;stroke:#F3969A;stroke-linecap:round;stroke-miterlimit:10;}
	.st4{fill:#55B599;}
	.st5{fill:#6CC3D5;}
	.st6{fill:#F29699;}
	.st7{fill:#F8F9FA;}
	.st8{fill:#FFFFFF;}
	.st9{fill:#EE6356;}
	.st10{fill:#EDC233;}
</style>
<g>
	<path class="st5" d="M77.5,36.8c-0.5-1.1-1.4-2.1-2.5-2.6c-1.3-0.6-2.7-0.7-4.1-0.9c-4.7-0.5-9.5-0.9-14.2-1.4
		c-1.1-0.1-2.2-0.2-3.2-0.7c-2.3-1.1-3.3-5.2-4.3-7.4c-1.6-3.4-3.1-6.8-4.7-10.2c-0.6-1.3-1.2-2.4-2.5-3.1c-1.5-0.8-3.9-1-5.4-0.1
		c-1.5,0.9-2.4,2.7-3.1,4.3c-1.3,3-2.7,5.9-4,8.9c-0.7,1.5-1.3,2.9-2,4.4c-0.5,1.1-0.9,2.4-1.9,3.1c-1,0.7-2.2,0.7-3.3,0.8
		c-1.3,0.1-2.7,0.3-4,0.4c-2.9,0.3-5.8,0.6-8.6,0.9c-1.8,0.2-3.8,0.2-5.5,0.8c-1,0.4-3,1.6-3,2.9c-0.4,0.8-0.6,1.8-0.6,2.7
		c0.1,1.7,1.4,2.9,2.5,4C4.5,45,6,46.3,7.4,47.7c2.9,2.7,5.7,5.4,8.5,8.3c0.4,0.4,0.7,0.8,0.9,1.3c0.4,1.2-0.1,2.5-0.4,3.7
		c-0.4,1.5-0.6,3.1-1,4.6c-0.6,2.6-1.1,5.3-1.7,7.9c-0.5,2.2-1.3,4.6-0.4,6.9c0.5,1.4,1.6,2.5,2.9,3c3.6,1.3,7.2-1.7,10.1-3.3
		c2.4-1.3,4.7-2.6,7-4c2.1-1.2,4.3-2.7,6.8-2.2c1.6,0.3,3,1.1,4.4,1.9c3.7,2,7.3,4.1,11,6.1c3.3,1.8,8.5,3,9.8-1.7
		c0.9-3.1-0.5-6.6-1.2-9.6c-0.7-3.2-1.4-6.5-2.1-9.7c-0.5-2.5-0.2-4.2,1.7-6c2.7-2.6,5.5-5.3,8.2-7.9c2-1.9,5.7-4.4,6-7.3
		C78.1,38.6,77.9,37.7,77.5,36.8z"/>
</g>
</svg>
