<?xml version="1.0" encoding="utf-8"?>
<!-- Generator: Adobe Illustrator 19.1.0, SVG Export Plug-In . SVG Version: 6.00 Build 0)  -->
<svg version="1.1" id="Layer_1" xmlns="http://www.w3.org/2000/svg" xmlns:xlink="http://www.w3.org/1999/xlink" x="0px" y="0px"
	 viewBox="0 0 79.1 95.9" style="enable-background:new 0 0 79.1 95.9;" xml:space="preserve">
<style type="text/css">
	.st0{fill:#F3969A;}
	.st1{fill:#DC8537;}
	.st2{fill:none;stroke:#F3969A;stroke-miterlimit:10;}
	.st3{fill:none;stroke:#F3969A;stroke-linecap:round;stroke-miterlimit:10;}
	.st4{fill:#55B599;}
	.st5{fill:#489AD8;}
	.st6{fill:#F29699;}
	.st7{fill:#6CC3D5;}
	.st8{fill:#F8F9FA;}
	.st9{fill:#FFFFFF;}
	.st10{fill:#EE6356;}
	.st11{fill:#EDC233;}
</style>
<g>
	<circle class="st9" cx="40.5" cy="38.9" r="24.7"/>
	<path class="st0" d="M71.9,19.6C65.8,9.5,54.3,1.7,42.3,1.4c-0.9,0-1.7-0.1-2.6-0.1l0,0c-0.8,0-1.7,0-2.6,0.1
		c-12,0.3-23.5,8.1-29.6,18.2c-4.7,7.8-6.4,17.3-5,26.3c1.4,8.8,6.6,16.7,12.3,23.4c7.6,8.9,16.8,16.1,24.9,24.5v0c0,0,0,0,0,0
		c0,0,0,0,0,0v0c8.1-8.4,17.3-15.6,24.9-24.5c5.7-6.7,10.8-14.6,12.3-23.4C78.3,36.9,76.6,27.4,71.9,19.6z M39.7,61.5
		c-12.8,0-23.2-10.4-23.2-23.2s10.4-23.2,23.2-23.2c12.8,0,23.2,10.4,23.2,23.2S52.4,61.5,39.7,61.5z"/>
	<path class="st0" d="M55.5,33c-0.2-0.5-0.6-0.9-1.1-1.1c-0.5-0.2-1.1-0.3-1.7-0.4c-2-0.2-4-0.4-6-0.6c-0.5,0-0.9-0.1-1.4-0.3
		c-1-0.5-1.4-2.2-1.8-3.1c-0.7-1.4-1.3-2.9-2-4.3c-0.2-0.5-0.5-1-1.1-1.3c-0.6-0.4-1.6-0.4-2.3,0c-0.6,0.4-1,1.1-1.3,1.8
		c-0.6,1.2-1.1,2.5-1.7,3.7c-0.3,0.6-0.6,1.2-0.8,1.8c-0.2,0.5-0.4,1-0.8,1.3c-0.4,0.3-0.9,0.3-1.4,0.3c-0.6,0.1-1.1,0.1-1.7,0.2
		c-1.2,0.1-2.4,0.2-3.6,0.4c-0.8,0.1-1.6,0.1-2.3,0.3c-0.4,0.2-1.3,0.7-1.3,1.2c-0.2,0.4-0.3,0.7-0.2,1.1c0.1,0.7,0.6,1.2,1.1,1.7
		c0.6,0.6,1.2,1.2,1.8,1.7c1.2,1.1,2.4,2.3,3.6,3.5c0.2,0.2,0.3,0.3,0.4,0.5c0.2,0.5,0,1.1-0.2,1.5c-0.2,0.6-0.3,1.3-0.4,1.9
		c-0.2,1.1-0.5,2.2-0.7,3.3c-0.2,0.9-0.5,1.9-0.2,2.9c0.2,0.6,0.7,1.1,1.2,1.3c1.5,0.5,3-0.7,4.3-1.4c1-0.5,2-1.1,3-1.7
		c0.9-0.5,1.8-1.1,2.9-0.9c0.7,0.1,1.3,0.5,1.9,0.8c1.5,0.9,3.1,1.7,4.6,2.6c1.4,0.8,3.6,1.2,4.1-0.7c0.4-1.3-0.2-2.8-0.5-4
		c-0.3-1.4-0.6-2.7-0.9-4.1c-0.2-1.1-0.1-1.8,0.7-2.5c1.2-1.1,2.3-2.2,3.5-3.3c0.8-0.8,2.4-1.8,2.5-3.1C55.8,33.7,55.7,33.3,55.5,33
		z"/>
</g>
</svg>
