<?xml version="1.0" encoding="utf-8"?>
<!-- Generator: Adobe Illustrator 19.1.0, SVG Export Plug-In . SVG Version: 6.00 Build 0)  -->
<svg version="1.1" xmlns="http://www.w3.org/2000/svg" xmlns:xlink="http://www.w3.org/1999/xlink" x="0px" y="0px"
	 viewBox="0 0 220 220" style="enable-background:new 0 0 220 220;" xml:space="preserve">
<style type="text/css">
	.st0{fill:#FACD66;}
	.st1{fill:#F8F9FA;}
	.st2{fill:#55B599;}
	.st3{fill:#F29699;}
	.st4{fill:#6CC3D5;}
	.st5{fill:none;stroke:#707070;stroke-linecap:round;stroke-miterlimit:10;}
	.st6{fill:#FFFFFF;}
	.st7{fill:#5DCC9D;}
	.st8{fill:#F0754F;}
	.st9{fill:none;stroke:#707070;stroke-miterlimit:10;}
	.st10{fill:#707070;}
	.st11{fill:none;stroke:#231F20;stroke-miterlimit:10;}
	.st12{fill:none;stroke:#8895A7;stroke-miterlimit:10;}
	.st13{fill:#707070;stroke:#231F20;stroke-width:2;stroke-miterlimit:10;}
	.st14{fill:#F3969A;}
	.st15{stroke:#707070;stroke-linecap:round;stroke-miterlimit:10;}
	.st16{fill:#6CC3D5;stroke:#707070;stroke-width:2;stroke-miterlimit:10;}
	.st17{fill:#F8F9FA;stroke:#707070;stroke-width:0;stroke-miterlimit:10;}
	.st18{fill:#F8F9FA;stroke:#F8F9FA;stroke-miterlimit:10;}
	.st19{fill:#707070;stroke:#707070;stroke-miterlimit:10;}
	.st20{fill:#DBEAF9;}
	.st21{fill:none;stroke:#FACD66;stroke-width:3;stroke-linecap:round;stroke-miterlimit:10;}
	.st22{fill:none;stroke:#F8F9FA;stroke-width:0.3;stroke-linecap:round;stroke-miterlimit:10;}
	.st23{fill:#F0754F;stroke:#707070;stroke-linecap:round;stroke-miterlimit:10;}
	.st24{fill:#F0754F;stroke:#707070;stroke-miterlimit:10;}
	.st25{fill:#F29699;stroke:#707070;stroke-miterlimit:10;}
	.st26{fill:#F0754F;stroke:#231F20;stroke-linecap:round;stroke-miterlimit:10;}
	.st27{fill:#707070;stroke:#707070;stroke-linecap:round;stroke-miterlimit:10;}
	.st28{fill:#F8F9FA;stroke:#707070;stroke-miterlimit:10;}
	.st29{fill:#EE6356;}
	.st30{fill:none;stroke:#6D6A69;stroke-linecap:round;stroke-miterlimit:10;}
	.st31{fill:#F9D6DA;}
	.st32{fill:none;stroke:#DC8537;stroke-miterlimit:10;}
	.st33{fill:none;stroke:#F29699;stroke-width:2;stroke-miterlimit:10;}
</style>
<g id="Layer_1">
	<g>
		<circle class="st4" cx="108.8" cy="126.6" r="80.7"/>
		<path class="st1" d="M173.2,206.3l-0.3-0.5c-0.2-0.4-0.4-0.8-0.5-1.2c-0.6-1.9-0.7-4-0.6-5.7c0-2.1,0-4.2,0.1-6.3
			c0.1-2,0.1-4,0.1-6c0-1.2,0-2.4,0-3.6l0-0.2c0-1.2,0-2.5,0.2-3.7l-0.2,0c0.3-0.3,0.5-0.7,0.5-1.2v-0.1c0-0.9-0.7-1.7-1.7-1.7h-9.6
			c-0.9,0-1.7,0.7-1.7,1.7v0.1c0,0.5,0.2,0.9,0.5,1.2l-0.1,0l0,0.4c0.2,1.9,0.4,4,0.5,5.8c0.3,4.1,0.3,8.2,0.3,12.2l0,2.7
			c0,2,0,4.3-1.2,6l-0.3,0.3c-0.1,0.1-0.3,0.2-0.4,0.3c-0.2,0.4-0.3,0.8-0.3,1.2c0,0.1,0,0.2,0,0.3c-0.1,0.6-0.1,1.1-0.1,1.5
			c0,0.1,0,0.3,0.1,0.4h0l0.2,1.3l0.3,1c0.1,0.3,0.7,1.5,1.5,1.5H172c0.9,0,1.6-0.6,1.6-1.4l0.1-0.9l0.1-1.5c0-0.1,0.1-0.3,0.1-0.4
			C174,208.7,174.1,207.4,173.2,206.3z"/>
		<path class="st0" d="M175.6,206.7l-0.3-0.5c-0.2-0.4-0.4-0.8-0.5-1.2c-0.6-1.9-0.7-4-0.6-5.7c0-2.1,0-4.2,0.1-6.3
			c0.1-2,0.1-4,0.1-6c0-1.2,0-2.4,0-3.6l0-0.2c0-1.2,0-2.5,0.2-3.7l-0.2,0c0.3-0.3,0.5-0.7,0.5-1.2v-0.1c0-0.9-0.7-1.7-1.7-1.7h-9.6
			c-0.9,0-1.7,0.7-1.7,1.7v0.1c0,0.5,0.2,0.9,0.5,1.2l-0.1,0l0,0.4c0.2,1.9,0.4,4,0.5,5.8c0.3,4.1,0.3,8.2,0.3,12.2l0,2.7
			c0,2,0,4.3-1.2,6l-0.3,0.3c-0.1,0.1-0.3,0.2-0.4,0.3c-0.2,0.4-0.3,0.8-0.3,1.2c0,0.1,0,0.2,0,0.3c-0.1,0.6-0.1,1.1-0.1,1.5
			c0,0.1,0,0.3,0.1,0.4h0l0.2,1.3l0.3,1c0.1,0.3,0.7,1.5,1.5,1.5h11.3c0.9,0,1.6-0.6,1.6-1.4l0.1-0.9l0.1-1.5c0-0.1,0.1-0.3,0.1-0.4
			C176.4,209.2,176.5,207.8,175.6,206.7z"/>
		<path class="st1" d="M187,34.7c-1.4-2.4-3.8-6-7.4-9.7c-11.2-11.5-24.9-14.4-29.8-15.4c-8.8-1.7-16.9-1-20.2-0.7
			c-5,0.5-8,1.3-9.7,1.8c0,0-5.4,1.7-10.8,5C90.8,27.2,84.9,47.2,84.9,47.2c-1.1,2.9-1.7,5.5-2,7.3c-0.7,3.4-1.6,8.3-0.3,14.3
			c0.2,1,0.4,1.8,0.6,2.3l0.4,0.5c2.8-1,6-2,9.7-2.6c10-1.7,18.4-0.2,23.8,1.3l0.7-0.1c1.3-2.3,3.7-5.7,7.5-8.8
			c6.1-4.9,12.3-6.2,16-6.9c3.5-0.7,9.2-1.7,16,0.3c2.7,0.8,4.8,1.9,6.2,2.7l0.6-0.2c0.7-1.4,1.8-3.4,3.6-5.7
			c3.4-4.3,7.2-6.7,12-9.7c2-1.3,5-3,8.7-4.7L187,34.7z"/>
		<line class="st23" x1="208.4" y1="26.1" x2="196.3" y2="42.6"/>
		<line class="st23" x1="202.1" y1="69.1" x2="199.1" y2="74.4"/>
		<line class="st23" x1="174.1" y1="3.3" x2="169.6" y2="10.4"/>
		<line class="st23" x1="107.7" y1="7.3" x2="102.7" y2="14.9"/>
		<line class="st23" x1="195.2" y1="13.8" x2="188.8" y2="23.7"/>
		<line class="st23" x1="183.5" y1="9.9" x2="178.9" y2="16.9"/>
		<line class="st23" x1="212.2" y1="35.6" x2="167.8" y2="102.3"/>
		<line class="st23" x1="180.1" y1="50.6" x2="159.1" y2="80.9"/>
		<line class="st23" x1="188.6" y1="53.8" x2="163.7" y2="90.2"/>
		<line class="st23" x1="58.6" y1="32.1" x2="23.2" y2="83.6"/>
		<line class="st23" x1="76.3" y1="55.6" x2="71" y2="63.1"/>
		<line class="st23" x1="55.6" y1="53.8" x2="18.8" y2="106.6"/>
		<line class="st23" x1="83.1" y1="10.2" x2="63.8" y2="39.3"/>
		<line class="st23" x1="94" y1="12.7" x2="36.9" y2="96.1"/>
		<line class="st23" x1="65.8" y1="73" x2="24.9" y2="133.7"/>
		<line class="st23" x1="77" y1="73.9" x2="60" y2="98.7"/>
		<line class="st23" x1="193.4" y1="83.1" x2="162.6" y2="128.1"/>
		<line class="st23" x1="208" y1="78.1" x2="179.2" y2="121.1"/>
		<line class="st24" x1="198.8" y1="108.4" x2="181.6" y2="133.7"/>
		<path class="st1" d="M72.7,157.5c-2.5,0.4-4.5,0.4-7.1-1.1c-3.2-1.9-5.3-5.1-7.1-8.3c-2.1-3.8-3.3-8.3-3.9-12.6
			c-0.2-1.4-0.3-2.9,0.4-4c1.3-2.1,4.2-2.2,6.5-2.5c3-0.4,4.6-1.6,6-4.4c2.2-4.5,3.7-9.5,7.1-13.2c3.5-3.9,8.2-6.8,12.9-9.1
			c6.7-3.2,14.8-4,21.5-0.4c5,2.6,10.8,6.2,16.6,6.6c8.5,0.6,12.8-5.6,11.3-13.6c-0.2-1-0.4-1.7-0.8-2.7c-1-3.1-2.8-6.5-2.1-9.8
			c0.9-4.3,5.9-7.2,10.1-6.6c3,0.4,7.4,2.4,5.3,6.2c-0.4,0.8-1.2,1.4-2.1,1.3c-2.4-0.3-4.3-4.3-5.8,0.1c-1.3,3.7,3.6,6.2,5.2,13.3
			c1.2,5.5-0.7,10-3.9,14.4c-2.4,3.3-5,6.8-6.1,10.9c-1.2,4.5-0.1,9.3-0.9,13.9c-0.6,3.2-2,6.3-4.1,8.8c-1.1,1.3-2.3,2.6-3.7,3.5
			c-1.5,0.9-3.5,0.9-4.9,2c-2.7,2.1-0.5,8.5,0.2,11.2c2.6,10.4,9.3,19.2,11.5,29.8c1.2,5.5,2.9,10.8,5.8,15.6
			c0.7,1.2,1.2,2.6,0.6,3.9c-0.5,1.2-1.9,1.7-3.1,2.1c-3.3,1-6.7,1.6-10.1,2.1c-3.4,0.5-6.7,0.1-10.1,0.5c-2.6,0.3-5.1,1.2-7.7,1.7
			c-2.6,0.5-5.3,0.2-7.9,0.1c-6.2-0.1-12.4-0.7-18.6-1c-4.2-0.2-8.5,0.6-12.7,0.4c-4.7-0.3-7.5-2.5-11.5-4.5
			c-1.4-0.7-2.8-1.1-4.1-1.8c-4.2-2.4-4.8-8.9-5.4-13.1c0-0.2-0.1-0.4,0-0.6c0.2-0.4,0.7-0.4,1.1-0.2c0.4,0.2,0.6,0.6,0.8,0.9
			c0.7,1.1,1.7,2.1,3,2.4c1.3,0.3,2.8-0.3,3.2-1.6c0.2-0.7,0.1-1.5-0.1-2.2c-0.5-2.1-1.1-4.1-1.4-6.2c-1.2-9,6.8-15.9,13.3-20.7
			c1.8-1.3,4.5-3.3,5.5-5.3c0.2-0.5,0.1-1-0.2-1.8c-0.6-1.8-1.9-3.2-1.9-3.1c0,0,0,0.1,0.2,0.4"/>
		<path class="st5" d="M144.6,116.1c1,0.6,2.2,0.8,3.3,0.8c2.7-0.1,5.3-1.9,6.4-4.4c1.1-2.5,0.6-5.4-0.2-7.9
			c-0.9-2.9-1.9-5.7-2.9-8.5c-2-5.9-3.9-11.7-5.9-17.6c-1.5-4.4-6.2-18-7.7-22.4"/>
		<path class="st23" d="M117.8,1.5c0.5,0.8,1.1,1.7,1.6,2.7c1.1,2.1,1.7,3.7,1.8,4.2c0.2,0.5,0.4,1.4,0.5,1.8"/>
		<path class="st5" d="M71.6,145.1c-10.5-9.2-9.6-23.9-1.3-34.2c8.3-10.2,21.2-17.8,34.7-14.4c4.6,1.2,8.5,4.1,12.6,6.5
			c3.6,2.1,8.8,3.9,12.9,2.2c5.9-2.4,5.1-9.4,2.9-14.2c-1.3-2.9-2.8-5.9-2.4-9c0.3-2.3,1.8-4.4,3.7-5.7s4.3-1.9,6.6-1.7
			c3.3,0.2,7.4,2.4,5.2,6.3c-0.3,0.6-0.8,1.1-1.5,1.2c-1.8,0.3-2.5-2.2-4.3-2.1c-1.1,0-1.8,1.2-2,2.2c-1.3,5.2,4.1,8.5,5.2,13.3
			c2.5,11.7-10.6,17.4-10.8,28.3c-0.1,2.9,0.4,5.9,0.4,8.8c-0.1,7.2-6.1,13.3-12.5,15.7l-1.5,0.7c-0.5,4.1-0.2,7.3,0.1,9.5
			c1,6.8,3.8,12.4,6.1,17c0.8,1.7,1.6,3.1,3.1,6.2c1.6,3.4,2.8,6.6,3.5,10.3c0.9,4.7,2.9,8.8,5,13.1c1.2,2.3,1.6,2.9,1.3,3.7
			c-0.4,1.1-1.8,1.5-2.5,1.7c-0.5,0.1-2,0.5-3.4-0.2c-2.1-1.1-2.3-3.8-2.3-3.9"/>
		<path class="st5" d="M82.7,138.8c-1.4,1.4-3.6,3.9-5.1,7.8c-1.6,4.2-1.6,7.9-1.5,9.8"/>
		<path class="st5" d="M75.3,163c-3.2,3.3-7.5,7.1-11,10.1c-3.2,2.7-5.7,6.2-7.2,10.1c-0.8,2.1-1.3,4.3-1,6.5c0.3,2.3,3,6.9,0.9,9.1
			c-0.6,0.6-1.4,0.7-2.2,0.5c-1.2-0.2-2.3-0.8-3.2-1.6c-0.4-0.4-0.7-0.9-0.9-1.4c-0.2-0.4-0.3-0.9-0.8-0.5c-0.5,0.5-0.5,2.1-0.5,2.7
			c0.1,4,4.3,8.2,8,9.3c0.5,0.1,1,0.2,1.4,0.1c1.6-0.5,1.1-2.8,0.1-3.5"/>
		<path class="st5" d="M79.1,176.4c0.7-0.2,1.8-0.4,3.1-0.2c2.9,0.4,5,2.7,5.6,3.3"/>
		<path class="st5" d="M81.8,183.2c5.2-3.6,9.9-5.4,13.2-6.4c3.3-1,11.9-3.5,21-0.7c5.8,1.8,7.1,4.2,7.5,5.1
			c0.6,1.4,0.5,2.7,0.2,5.3c-0.6,5.8-2.8,10.4-3.6,12c-2,3.9-2.7,3.7-3.1,5.9c-0.4,2.6,0.4,4.7-1.1,6.5c-0.7,0.9-1.5,1.3-2,1.5
			c-6.9,3.3-29.6-0.9-40.8,0.6c-1.1,0.1-4,0.6-7.4-0.6c-2.7-1-3.9-2-5.1-3.2"/>
		<path class="st5" d="M116.6,186.6c0.5-0.2,1.4-0.3,2.4-0.1c2.2,0.5,3.9,3.7,4.1,4"/>
		<path class="st5" d="M117.6,211.7c1.4,0.5,2.6,0.9,5,1c3.4,0.2,6.2-0.6,7.8-1.2"/>
		<path class="st5" d="M114.3,151.1c0.1,0.2,0.7,1.3,2.1,1.7c1.5,0.3,2.6-0.5,2.7-0.6"/>
		<path class="st5" d="M114.7,101.5c-0.2,0.4-0.5,0.9-0.6,1.6c-0.2,1.9,1,3.3,1.2,3.6"/>
		<circle class="st19" cx="118.7" cy="122.4" r="1.3"/>
		<path class="st5" d="M80.6,103.9c-0.5-0.3-2.2-1.2-3.1-3.3c-1.2-2.8,0.1-5.4,0.3-5.7"/>
		<path class="st5" d="M74.4,102.3c0.3-0.1,0.9-0.2,1.6,0c1.3,0.3,2,1.4,2.2,1.6"/>
		<path class="st5" d="M62.4,123.4c-0.8,1.7-1.8,2.6-2.6,3.1c-1.3,0.9-2.3,0.9-5.9,2.3c-1.7,0.7-2,0.9-2.3,1.2
			c-1.2,1.3-1.2,3.2-1.1,4.6c0.6,7.9,4.1,14.3,4.1,14.3c2.1,3.9,4.1,6,4.8,6.7c1.4,1.4,2.7,2.7,4.8,3.7c3.4,1.6,7.6,0.8,9.4,0.4"/>
		<path class="st5" d="M79.9,136.8c-0.1,0.8-0.4,1.9-1.1,3.1c-1.1,1.9-2.4,2.7-4.6,4.6c-2.7,2.4-3.3,2.7-3.7,3.7
			c-0.6,1.6-0.1,3.1,0.3,4.3c2.5,7.1,3.8,10.8,8.1,14.3c1.5,1.2,5.8,4.7,12.3,5.1c1.9,0.1,6.7,0.4,11.5-2.7c4.4-2.8,6-6.6,7.6-10.5
			c0.6-1.5,1-2.9,0.8-4.5c-0.2-1.2-0.8-2.2-2-4c-1.9-2.9-2.7-3.2-3.8-5.5c-0.6-1.2-0.9-2.2-1.1-2.9c-0.5-1.8-0.6-3.4-0.7-4.5"/>
		<line class="st23" x1="54.6" y1="19.9" x2="38.2" y2="44.6"/>
		<line class="st23" x1="24.8" y1="64.8" x2="8.4" y2="89.5"/>
		<line class="st23" x1="40.3" y1="24.3" x2="16.7" y2="61.3"/>
		<path class="st5" d="M122.9,105.1c-0.2,0.3-0.5,0.7-0.6,1.3c-0.2,1.5,1,2.6,1.2,2.8"/>
		<path class="st0" d="M183.1,44.5c2.1-1.3,5.2-3.1,9-4.9l-1.2-2.6c-1.5-2.5-4-6.2-7.7-10.1c-1.3-1.4-2.7-2.6-4.1-3.7
			c-9.3-6.2-18.4-8.1-22.3-8.9c-9.2-1.8-17.6-1.1-21.1-0.7c-5.2,0.5-8.3,1.3-10.1,1.9c0,0-5.6,1.7-11.2,5.2
			C95.3,32.7,89.1,53.5,89.1,53.5c-1.1,3.1-1.7,5.7-2.1,7.7c-0.6,3.2-1.4,7.7-0.6,13.1c2.1-0.6,4.3-1.2,6.8-1.6
			c10.4-1.7,19.2-0.2,24.9,1.4l0.7-0.1c1.4-2.4,3.8-6,7.8-9.2c6.3-5.1,12.8-6.5,16.6-7.2c3.7-0.7,9.6-1.8,16.6,0.3
			c2.8,0.8,5,2,6.5,2.8l0.6-0.2c0.7-1.4,1.9-3.6,3.7-5.9C174.1,50.1,178.1,47.6,183.1,44.5z"/>
		<path class="st8" d="M142.9,21.5c-3.8-3.1-7.9-5.6-11.5-7.4c-2.9,0.5-4.7,1-6,1.4c0,0-5.6,1.9-11.2,5.4c0,0,0,0,0,0
			c-0.6,1.1-1.2,2.2-1.7,3.5c-5.3,12.2-4,23.3-3.3,28.5c1.1,9,9.4,21.2,9.4,21.2c1-1.7,2.3-3.7,4.5-6l1-1.3l2.1-1.6
			c0,0,0.1-0.1,0.1-0.1c0.4-0.4,0.9-0.7,1.3-1l1.1-0.8l0.5-0.3c2.3-1.4,4.5-2.5,6.5-3.2l1.3-0.6l7.8-1.7l0.9,0
			c3.6-0.5,8.4-0.8,13.8,0.8c2.6,0.8,4.7,1.8,6.2,2.6c-0.7-3.4-1.9-8.1-4.1-13.3C155.2,31.8,145,23.2,142.9,21.5z"/>
		<path class="st9" d="M117.4,70.2l-0.5-1c-2.7-4.4-6-11.4-7.2-20.4c-0.6-4.7-1.9-14.8,3.2-25.9c2.6-5.7,6-9.7,8.5-12.2l0.5-0.5
			l0.6,0.3c5.4,1.6,12.4,4.4,19.3,9.8c2,1.5,11.7,9.3,18,23.6c2.2,5.1,3.4,9.6,4,12.8l0,0.8"/>
		<path class="st9" d="M187.2,34.7c-1.4-2.4-3.8-6-7.4-9.7C168.5,13.5,154.9,10.6,150,9.6c-8.8-1.7-16.9-1-20.2-0.7
			c-5,0.5-8,1.3-9.7,1.8c0,0-5.4,1.7-10.8,5C91,27.3,85,47.2,85,47.2c-1.1,2.9-1.7,5.5-2,7.3c-0.7,3.4-1.6,8.3-0.3,14.3
			c0.2,1,0.4,1.8,0.6,2.3l0.4,0.5c2.8-1,6-2,9.7-2.6c10-1.7,18.4-0.2,23.8,1.3l0.7-0.1c1.3-2.3,3.7-5.7,7.5-8.8
			c6.1-4.9,12.3-6.2,16-6.9c3.5-0.7,9.2-1.7,16,0.3c2.7,0.8,4.8,1.9,6.2,2.7l0.6-0.2c0.7-1.4,1.8-3.4,3.6-5.7
			c3.4-4.3,7.2-6.7,12-9.7c2-1.3,5-3,8.7-4.7L187.2,34.7z"/>
		<path class="st9" d="M159.6,206.6c0,0-0.2,0.2-0.2,0.2c0,0.4,0.5,0.5,0.9,0.5c3.6,0.4,7.2,0.3,10.8,0.3c0.6,0,1.8-0.1,1.7-0.8
			c0-0.2-0.1-0.3-0.3-0.5c0.8,0.9,0.7,2.2,0.7,3.3c0,0.2-0.1,0.4-0.2,0.5c-0.1,0.1-0.4,0.2-0.6,0.2c-2,0.5-4,0.5-6,0.5
			c-2.2,0-4.8,0-6.9-0.6c-0.2-0.1-0.4-0.1-0.5-0.3c-0.1-0.1-0.1-0.2-0.1-0.4c0-0.5,0-1,0.1-1.4c0-0.4,0-1,0.2-1.4
			C159.3,206.6,159.6,206.6,159.6,206.6z"/>
		<path class="st9" d="M160.3,178.8c0.2,2,0.4,4.2,0.5,6.2c0.3,5,0.3,9.9,0.4,14.9c0,2.1-0.1,4.5-1.3,6.3l-0.4,0.5"/>
		<path class="st9" d="M170.6,178.8H161c-0.6,0-1.2-0.5-1.2-1.2v-0.1c0-0.6,0.5-1.2,1.2-1.2h9.6c0.6,0,1.2,0.5,1.2,1.2v0.1
			C171.7,178.3,171.2,178.8,170.6,178.8z"/>
		<path class="st9" d="M171.4,178.8c-0.1,1.3-0.2,2.7-0.2,4c0,3.2,0,6.4-0.1,9.6c-0.1,2.1-0.1,4.2-0.1,6.3c0,2,0.1,4,0.7,5.9
			c0.2,0.6,0.4,1,0.5,1.3l0.2,0.4l0.2,0.3"/>
		<path class="st10" d="M160.1,176.3l-0.9-6.2c0-0.3,0.1-0.5,0.4-0.5l0,0c0.3,0,0.5,0.1,0.5,0.4l0.9,6.3"/>
		<path class="st10" d="M170.8,176.2l1.2-6.2c0-0.3,0.3-0.4,0.5-0.4l0,0c0.3,0,0.4,0.3,0.4,0.5l-1.2,6.2"/>
		<path class="st9" d="M159,210l0.2,1.3l0.3,0.9c0,0,0.5,1.2,1.1,1.2h11.3c0.6,0,1.1-0.3,1.1-1l0.1-0.8l0.1-1.7"/>
		<path class="st25" d="M169,184.2c-1,0.2-1.8,0.2-2.4,0.3c-1.8,0.1-3.2-0.2-3.5-0.3c-0.2,0-0.3-0.1-0.4-0.1l0-2.7
			c0.2,0,0.5,0.1,0.8,0.1c0.2,0,1.2,0.2,2.6,0.1c0.9,0,1.6-0.1,2-0.1c0.3,0,0.6-0.1,0.8-0.1l0.3,2.7L169,184.2z"/>
		<path class="st1" d="M193.5,206.1l-0.3-0.5c-0.2-0.4-0.4-0.8-0.5-1.2c-0.6-1.9-0.7-4-0.6-5.7c0-2.1,0-4.2,0.1-6.3
			c0.1-2,0.1-4,0.1-6c0-1.2,0-2.4,0-3.6l0-0.2c0-1.2,0-2.5,0.2-3.7l-0.2,0c0.3-0.3,0.5-0.7,0.5-1.2v-0.1c0-0.9-0.7-1.7-1.7-1.7h-9.6
			c-0.9,0-1.7,0.7-1.7,1.7v0.1c0,0.5,0.2,0.9,0.5,1.2l-0.1,0l0,0.4c0.2,1.9,0.4,4,0.5,5.8c0.3,4.1,0.3,8.2,0.3,12.2l0,2.7
			c0,2,0,4.3-1.2,6l-0.3,0.3c-0.1,0.1-0.3,0.2-0.4,0.3c-0.2,0.4-0.3,0.8-0.3,1.2c0,0.1,0,0.2,0,0.3c-0.1,0.6-0.1,1.1-0.1,1.5
			c0,0.1,0,0.3,0.1,0.4h0l0.2,1.3l0.3,1c0.1,0.3,0.7,1.5,1.5,1.5h11.3c0.9,0,1.6-0.6,1.6-1.4l0.1-0.9l0.1-1.5c0-0.1,0.1-0.3,0.1-0.4
			C194.3,208.5,194.4,207.1,193.5,206.1z"/>
		<path class="st0" d="M195.8,206.5l-0.3-0.5c-0.2-0.4-0.4-0.8-0.5-1.2c-0.6-1.9-0.7-4-0.6-5.7c0-2.1,0-4.2,0.1-6.3
			c0.1-2,0.1-4,0.1-6c0-1.2,0-2.4,0-3.6l0-0.2c0-1.2,0-2.5,0.2-3.7l-0.2,0c0.3-0.3,0.5-0.7,0.5-1.2v-0.1c0-0.9-0.7-1.7-1.7-1.7h-9.6
			c-0.9,0-1.7,0.7-1.7,1.7v0.1c0,0.5,0.2,0.9,0.5,1.2l-0.1,0l0,0.4c0.2,1.9,0.4,4,0.5,5.8c0.3,4.1,0.3,8.2,0.3,12.2l0,2.7
			c0,2,0,4.3-1.2,6l-0.3,0.3c-0.1,0.1-0.3,0.2-0.4,0.3c-0.2,0.4-0.3,0.8-0.3,1.2c0,0.1,0,0.2,0,0.3c-0.1,0.6-0.1,1.1-0.1,1.5
			c0,0.1,0,0.3,0.1,0.4h0l0.2,1.3l0.3,1c0.1,0.3,0.7,1.5,1.5,1.5h11.3c0.9,0,1.6-0.6,1.6-1.4l0.1-0.9l0.1-1.5c0-0.1,0.1-0.3,0.1-0.4
			C196.7,208.9,196.7,207.6,195.8,206.5z"/>
		<path class="st9" d="M179.9,206.4c0,0-0.2,0.2-0.2,0.2c0,0.4,0.5,0.5,0.9,0.5c3.6,0.4,7.2,0.3,10.8,0.3c0.6,0,1.8-0.1,1.7-0.8
			c0-0.2-0.1-0.3-0.3-0.5c0.8,0.9,0.7,2.2,0.7,3.3c0,0.2-0.1,0.4-0.2,0.5c-0.1,0.1-0.4,0.2-0.6,0.2c-2,0.5-4,0.5-6,0.5
			c-2.2,0-4.8,0-6.9-0.6c-0.2-0.1-0.4-0.1-0.5-0.3c-0.1-0.1-0.1-0.2-0.1-0.4c0-0.5,0-1,0.1-1.4c0-0.4,0-1,0.2-1.4
			C179.6,206.4,179.9,206.4,179.9,206.4z"/>
		<path class="st9" d="M180.5,178.5c0.2,2,0.4,4.2,0.5,6.2c0.3,5,0.3,9.9,0.4,14.9c0,2.1-0.1,4.5-1.3,6.3l-0.4,0.5"/>
		<path class="st9" d="M190.9,178.6h-9.6c-0.6,0-1.2-0.5-1.2-1.2v-0.1c0-0.6,0.5-1.2,1.2-1.2h9.6c0.6,0,1.2,0.5,1.2,1.2v0.1
			C192,178,191.5,178.6,190.9,178.6z"/>
		<path class="st9" d="M191.7,178.5c-0.1,1.3-0.2,2.7-0.2,4c0,3.2,0,6.4-0.1,9.6c-0.1,2.1-0.1,4.2-0.1,6.3c0,2,0.1,4,0.7,5.9
			c0.2,0.6,0.4,1,0.5,1.3l0.2,0.4l0.2,0.3"/>
		<path class="st10" d="M180.4,176.1l-0.9-6.2c0-0.3,0.1-0.5,0.4-0.5l0,0c0.3,0,0.5,0.1,0.5,0.4l0.9,6.3"/>
		<path class="st10" d="M191,176l1.2-6.2c0-0.3,0.3-0.4,0.5-0.4l0,0c0.3,0,0.4,0.3,0.4,0.5l-1.2,6.2"/>
		<path class="st9" d="M179.3,209.7l0.2,1.3l0.3,0.9c0,0,0.5,1.2,1.1,1.2h11.3c0.6,0,1.1-0.3,1.1-1l0.1-0.8l0.1-1.7"/>
		<path class="st25" d="M189.3,184c-1,0.2-1.8,0.2-2.4,0.3c-1.8,0.1-3.2-0.2-3.5-0.3c-0.2,0-0.3-0.1-0.4-0.1l0-2.7
			c0.2,0,0.5,0.1,0.8,0.1c0.2,0,1.2,0.2,2.6,0.1c0.9,0,1.6-0.1,2-0.1c0.3,0,0.6-0.1,0.8-0.1l0.3,2.7L189.3,184z"/>
	</g>
</g>
<g id="Layer_2">
</g>
</svg>
