<?xml version="1.0" encoding="utf-8"?>
<!-- Generator: Adobe Illustrator 19.1.0, SVG Export Plug-In . SVG Version: 6.00 Build 0)  -->
<svg version="1.1" xmlns="http://www.w3.org/2000/svg" xmlns:xlink="http://www.w3.org/1999/xlink" x="0px" y="0px"
	 viewBox="0 0 220 220" style="enable-background:new 0 0 220 220;" xml:space="preserve">
<style type="text/css">
	.st0{fill:#FACD66;}
	.st1{fill:#F8F9FA;}
	.st2{fill:#55B599;}
	.st3{fill:#F29699;}
	.st4{fill:#6CC3D5;}
	.st5{fill:none;stroke:#707070;stroke-linecap:round;stroke-miterlimit:10;}
	.st6{fill:#FFFFFF;}
	.st7{fill:#5DCC9D;}
	.st8{fill:#F0754F;}
	.st9{fill:none;stroke:#707070;stroke-miterlimit:10;}
	.st10{fill:#707070;}
	.st11{fill:none;stroke:#231F20;stroke-miterlimit:10;}
	.st12{fill:none;stroke:#8895A7;stroke-miterlimit:10;}
	.st13{fill:#707070;stroke:#231F20;stroke-width:2;stroke-miterlimit:10;}
	.st14{fill:#F3969A;}
	.st15{stroke:#707070;stroke-linecap:round;stroke-miterlimit:10;}
	.st16{fill:#6CC3D5;stroke:#707070;stroke-width:2;stroke-miterlimit:10;}
	.st17{fill:#F8F9FA;stroke:#707070;stroke-width:0;stroke-miterlimit:10;}
	.st18{fill:#F8F9FA;stroke:#F8F9FA;stroke-miterlimit:10;}
	.st19{fill:#707070;stroke:#707070;stroke-miterlimit:10;}
	.st20{fill:#DBEAF9;}
	.st21{fill:none;stroke:#FACD66;stroke-width:3;stroke-linecap:round;stroke-miterlimit:10;}
	.st22{fill:none;stroke:#F8F9FA;stroke-width:0.3;stroke-linecap:round;stroke-miterlimit:10;}
	.st23{fill:#F0754F;stroke:#707070;stroke-linecap:round;stroke-miterlimit:10;}
	.st24{fill:#F0754F;stroke:#707070;stroke-miterlimit:10;}
	.st25{fill:#F29699;stroke:#707070;stroke-miterlimit:10;}
	.st26{fill:#F0754F;stroke:#231F20;stroke-linecap:round;stroke-miterlimit:10;}
	.st27{fill:#707070;stroke:#707070;stroke-linecap:round;stroke-miterlimit:10;}
	.st28{fill:#F8F9FA;stroke:#707070;stroke-miterlimit:10;}
	.st29{fill:#EE6356;}
	.st30{fill:none;stroke:#6D6A69;stroke-linecap:round;stroke-miterlimit:10;}
	.st31{fill:#F9D6DA;}
	.st32{fill:none;stroke:#DC8537;stroke-miterlimit:10;}
	.st33{fill:none;stroke:#F29699;stroke-width:2;stroke-miterlimit:10;}
</style>
<g id="Layer_1">
	<g>
		<circle class="st0" cx="106.8" cy="102.5" r="80.7"/>
	</g>
	<path class="st5" d="M84.7,114.7c0.8,0.2,1.9,0.8,3.2,0.7c1.1,0,2-0.7,2.7-0.9"/>
	<path class="st1" d="M42.4,83.9c2.2-0.8-1.9,0.9-3.7,8.4c-1.1,4.8-2.2,9.2-2.4,18.7c-0.3,13.7,2.3,12.5,1.1,19.7
		c-0.2,1.5-0.8,4.4,0.8,6.6c1.4,1.9,3.8,2.5,5.5,2.9c3,0.7,5.6,0.4,8.6,0c4-0.5,5.5-0.1,8.4-0.8c1.5-0.3,2.3,0.7,3.2,1.1
		c6.8,2.6,12.9,1.1,22.3-0.6c0.5-0.1,2.2,0.1,4.6,0c2-0.1,3.8-0.1,6-0.5c3.3-0.5,5-0.8,6-2.1c1-1.4,0.6-3.3,0.5-4.3
		c-0.9-5.1,0.9-3.3,0.5-16.5c-0.3-8.7-0.4-13.1-2-15.5c-1.8-2.8-2.2-4.5-3.8-6.6c-0.9-1.1,2.3-1.7,3.4-1.4c0.8,0.3,0.8,0.5,1.2,1.4
		c1.6,3.5,6.7,4.5,8.4,4.9c4.2,0.9,7.7-0.4,9-0.9c8.6-3.3,12-12.4,13.2-15.3c1.2-3.2,4.5-14.6-1.6-22.9c-0.5-0.6-4.1-7-9.6-6.5
		c-3.4,0.3-5.1,0.4-7.5,3.6c-0.5,0.7,0-3.4-0.1-3.9c-0.7-5.6-3.1-11.1-5.2-14.1c-6.2-8.8-16.9-10.6-21.3-11.3
		c-1.6-0.3-8-1.3-16.1,0.6c-6.2,1.5-11.9,3.6-16.7,8.9c-2.2,2.4-2.5,4.8-3.7,6.6c-0.3,0.5-0.9-0.9-1.5-1.8c-1.5-2.3-3.7-3.3-6.7-4.6
		c-2.8-1.2-7.2-3.1-11.8-1.7c-5.9,1.8-8.3,8-9.6,11.3c-3,7.5-1.5,14.3-0.9,16.7c0.8,3.4,2.6,10.8,8.7,14.8
		C35.4,82.7,39.2,85.1,42.4,83.9z"/>
	<path class="st1" d="M166,122.4c-3.1,0.5-0.8,0-3-2.1c-4.1-4-14.8-4-17.2-3.3c-8.6,2.5-12.6,9.3-15,13.4c-1.4,2.3-1.8,3.9-1.6,5.5
		c0.3,2.2,1.1,2.9,2.2,5.7c0.4,1.1,0.9,2.2-1.2,4c-1.6,1.4-5.6,2.3-8.8,3.5c-3.3,1.3-5.8,2.8-6.3,2.7c-3.8-0.4-5-3-6.3-4.5
		c-1.4-1.6-3.1-2.2-4.6-1.3c-1.6,0.9-1.9,3.6-1.6,5.2c0.1,0.7,2.7,0.6,4.3,1.2c1,0.3,0.4,0.7,1.2,1.1c2.3,1.1,3.2,2.4,4.9,3.4
		c5.2,2.8,8.1,4.1,11.9,3.5c5.1-0.8,8.2-1.8,10.4-3.3c1-0.7,0.6,0.9,2.5,2.3c2.8,2,3.8,1.9,7.1,2.5c1.7,0.3,1.7,2.4,2.8,2.8
		c1.8,0.6,3.5,0.1,4.4,0c12.2-1.8,13.6-2.1,14.3-1.6c0.8,0.6,1.3,1.5,2.8,1.8c1.4,0.3,2.6-0.1,3-0.2c4.1-1.4,11.1,0.2,21.2-0.2
		c0.5,0,1.4-0.1,2.3-0.7c1.9-1.4,1.8-4.4,1.8-5.8c0-9,1.4-8.3,0.8-16c-0.6-7.1-0.2-12.2-4.2-16.3c-6.6-6.6-14.7-6.8-20.7-6.3
		C167.5,120,170.2,121.7,166,122.4z"/>
	<ellipse class="st1" cx="29" cy="102.8" rx="1.5" ry="3.3"/>
</g>
<g id="Layer_2">
	<path class="st1" d="M110,172.9L110,172.9c0.3-1-1.7-3.2-2.1-3.6c-1.7-1.8-3.5-3.5-5.3-5.2c-2.9-2.7-5.2-5.4-8.2-7.9
		c-2.7-2.2-5.7-4.3-9.3-4c-8.6,0.7-18.1,3-26.4,5.1c-12,3-23.9,6.5-36,9c-1.6,0.3-2.3,1-2.3,1.8l-0.1,0c0,0.3-0.1,2.7,0,3.3
		c0.1,2.6,0.5,3.1,2.3,5.1c1.9,2.1,3.8,4.2,5.8,6.2c2.6,2.6,5.2,5.2,7.9,7.7c2.4,2.1,4.5,4.5,7.8,5c3.3,0.5,6.8-0.9,10-1.8
		c3.9-1.1,7.8-2.3,11.6-3.5c7.7-2.3,15.4-4.4,23.2-6.6c4.2-1.2,7.6-2.2,11.7-3.4c2.1-0.6,5-1.5,7.1-2.1
		C110.3,177.4,110.1,175.8,110,172.9z"/>
	<ellipse class="st2" cx="93.5" cy="163.5" rx="3.8" ry="2.2"/>
	<path class="st2" d="M48,186.9c4.3-0.8,8.6-2.5,12.8-3.8c7.3-2.2,14.7-4.3,22-6.4c4.3-1.2,7.9-2.1,11.9-3.9
		c0.6-0.3-2.9-3.3-3.2-3.6c-4.2-4-6.4-6.6-12.2-11.8c-0.8-0.7,0.4-1.4-0.8-1.2c-16.6,3.6-32.1,8.3-48.8,11.9
		c-1.4,0.3-4.7,0.5-2.9,2.4c3.8,4,7.5,8.3,11.6,12c1.6,1.4,3.3,2.8,5.1,3.9C44.8,187.2,46.4,187.2,48,186.9z"/>
	<path class="st4" d="M26.2,169.3c1-1.3,19.9,9.3,22.4,9.7c5.4,0.8,11.2-0.8,16.6-1.3c6.2-0.6,12.9-2.3,19.2-2.1l2.8,0.1l-3.3,1
		l-36.9,10.6l-3.9-0.7l-6.9-5.4l-10.5-11.1C25.7,169.9,26.2,169.3,26.2,169.3z"/>
	<path class="st1" d="M49.5,118.9c-2.7-4.4-7.6-7.8-12.8-7.9c-0.4,0-0.7,0-1.1,0c-0.4,0-0.7,0-1.1,0c-5.2,0.1-10.2,3.5-12.8,7.9
		c-2,3.4-2.8,7.5-2.2,11.4c0.6,3.8,2.8,7.2,5.3,10.1C28,144.2,35.5,151,35.5,151c3.1-3.1,6.5-6.1,9.5-9.3c3-3.3,5.9-6.9,6.6-11.4
		C52.3,126.4,51.5,122.3,49.5,118.9z M35.5,137c-5.5,0-10-4.5-10-10c0-5.5,4.5-10,10-10c5.5,0,10,4.5,10,10
		C45.6,132.5,41.1,137,35.5,137z"/>
	<path class="st9" d="M60.7,139.4c1.3,0.5,3.2,1.2,5.7,1.7c3.4,0.7,6.1,0.8,6.8,0.8c3.5,0.1,6.2-0.3,10.2-1c2.2-0.4,4-0.7,5.2-1"/>
	<path class="st5" d="M47.5,191.1c13.4-3.6,20-5.7,22.3-6.3c11.1-2.9,17.1-5,26.1-7.3c4.6-1.2,8.9-2.5,13.4-3.8
		c1.8-0.5-1-3.6-1.5-4.1c-1.7-1.8-3.5-3.5-5.3-5.2c-2.9-2.7-5.2-5.4-8.2-7.9c-2.7-2.2-5.7-4.3-9.3-4c-8.6,0.7-18.1,3-26.4,5.1
		c-12,3-23.9,6.5-36,9c-3,0.6-2.7,2.3-0.9,4.3c7,7.8,9.1,10.1,13.6,14.3c3.2,3,5.6,5.6,9.1,6.2C45.8,191.5,47,191.2,47.5,191.1z"/>
	<path class="st5" d="M47.5,186.9c4.3-0.8,10.1-2.5,14.3-3.7c7.3-2.2,14.3-4.2,21.6-6.3c4.3-1.2,6.8-2.1,11.6-3.6
		c0.7-0.2-3.6-3.8-3.9-4.1c-4.2-4-6.4-6.6-12.2-11.8c-0.8-0.7,0.4-1.4-0.8-1.2c-16.6,3.6-32.1,8.3-48.8,11.9
		c-1.4,0.3-4.7,0.5-2.9,2.4c3.8,4,7.5,8.3,11.6,12c1.6,1.4,3.3,2.8,5.1,3.9C44.3,187.2,45.8,187.2,47.5,186.9z"/>
	<path class="st5" d="M20.2,168.3c0,0.3-0.1,2.7,0,3.3c0.1,2.6,0.5,3.1,2.3,5.1c1.9,2.1,3.8,4.2,5.8,6.2c2.6,2.6,5.2,5.2,7.9,7.7
		c2.4,2.1,4.5,4.5,7.8,5c3.3,0.5,6.8-0.9,10-1.8c3.9-1.1,7.8-2.3,11.6-3.5c7.7-2.3,15.4-4.4,23.2-6.6c4.2-1.2,7.6-2.2,11.7-3.4
		c2.1-0.6,5-1.5,7.1-2.1c2.6-0.7,2.4-2.3,2.3-5.2"/>
	<ellipse class="st5" cx="92.3" cy="162.2" rx="3.8" ry="2.2"/>
	<path class="st9" d="M106.6,151.8c2.8,4,8.9,6.8,13.5,7.9c5.2,1.3,11.2,0.6,15.3-2.9"/>
	<path class="st5" d="M135,148.6c0.4-1.7-0.4-3-1.2-4.3c-0.3-0.4-0.6-0.9-1.1-1.1c-1.4-0.6-1.9,1.1-2.5,1.9
		c-2.4,3.2-6.7,2.4-9.9,4.2c-2.7,1.5-5.6,3.4-8.6,1.2c-1.8-1.3-2.5-4.3-4.7-4.9c-1.9-0.5-4.1,0.8-4.8,2.7c-0.3,1-0.2,2.2,0.5,2.9
		c0.6,0.7,1.6,1,2.6,0.9c0.5-0.1,1-0.2,1.4-0.6c0.5-0.4,0.6-1.3,0.2-1.7"/>
	<path class="st5" d="M134.8,155.9c0.3,0.7,0.9,1.7,1.9,2.7c0.6,0.6,2,2.1,4.4,2.6c1.8,0.5,2.9,0.4,3.8,0.2"/>
	<path class="st9" d="M159.2,147.4c-3.6,0.8-7.9,0.5-11.5,0.8c-1.7,0.2-3.6,0.8-4.4,2.4c-0.9,1.8-0.1,4,0.4,5.8
		c0.5,1.9,0.8,3.9,1.6,5.7c1.6,3.5,4.5,2.7,7.7,2.3c4.3-0.5,9.1-1.1,13.4-1.5"/>
	<path class="st5" d="M161.2,138.9c0-0.8,0.2-2.9,1.6-5c1.6-2.3,3.7-3.1,4.4-3.4"/>
	<path class="st5" d="M161.4,137.2c0.3-0.4,1-1.1,2.1-1.7c0.5-0.2,1-0.4,1.4-0.5"/>
	<path class="st5" d="M164,128.7c0.6-3.9,6-5.3,10.1-3.8c8.2,3.1,8,12.9,3.3,18.9"/>
	<path class="st5" d="M182.9,142c-6.7,2.5-14.1,3-21.1,3.4c-1.6,0.1-2.6,0.5-2.6,2.2c0,5,3.4,9.2,5.8,13.2c0.4,0.7,0.8,1.5,1.4,2.1
		c1.3,1.4,3.2,1.4,4.9,1.5c5.4,0.2,10.9-0.2,16.3-0.3c2.9-0.1,8.1,0.9,9.4-2.7c0.3-0.9,0.3-1.8,0.4-2.7c0.2-6.7,1.6-13.5,1.1-20.3
		c-0.7-8.9-4.7-15.7-13.4-18.4c-5.4-1.7-12.2-1.9-17.1,1.2c-1.5,0.9-2.8,2-4,0.1c-0.8-1.2-2-2-4.6-3.5c-2.7-1.6-5.5-1.6-7.7-1.6
		c-6.3,0-10.8,2.8-12.3,3.7c-2.1,1.4-5.1,3.2-6.9,7c-1.6,3.2-3.2,6.5-3.3,8.5c0,2.8,3,4.8,2.5,7.5"/>
	<ellipse class="st10" cx="142.8" cy="145.7" rx="0.7" ry="1.1"/>
	<path class="st5" d="M44.6,46.5c-2.4-2.7-6.1-4.7-9.8-4.2c-4.8,0.7-7.4,5.4-8.5,9.7c-1.3,5.2-1.4,15.4,4,18.6"/>
	<path class="st5" d="M72,71.4c0.7-0.6,3.5-3,7.4-2.8c4.3,0.2,8.2,3.5,9.6,8.2"/>
	<path class="st5" d="M68.6,75.4c-1.3,1.2-1.9,2.9-2.2,4.6c-0.9,4.2-0.5,9.1,0.6,13.2c1,3.9,3.5,7.8,7,10.2c1.7,1.2,3.8,1.9,5.9,2
		c2,0,4.6-0.4,5.5-2.3c0.4-0.8,0.5-1.8,0-2.7c-0.6-1.2-2-1.8-3.2-1.1"/>
	<path class="st5" d="M83.4,100.5c-2.3-0.8-2.8-3.7-2.4-5.8c0.5-2.5,1.9-4.7,3.9-6.3c2.2-1.7,4.6-2.6,4.6-5.8"/>
	<path class="st5" d="M73.4,80.8c0.7-0.2,2-0.5,3.7-0.3c2.1,0.3,3.5,1.4,4.1,1.9"/>
	<path class="st5" d="M114.2,57.3c3.6-4.6,7.8-4.1,10.4-3c12,5,12,21.8,7,32.1C129,91.9,124.4,97,118.5,99
		c-6.6,2.3-13.5-0.7-17.7-5.9"/>
	<path class="st9" d="M29.7,132.3c0,0.4-0.1,1.3,0.4,2.1c0.7,1.3,2.2,1.6,3.2,2c1.5,0.5,3.5,1.5,5.7,3.6"/>
	<path class="st9" d="M42.6,84.1c-2.7,2.4-3.2,6.9-4.1,10.2c-1.6,5.4-2.2,11-2.1,16.5"/>
	<path class="st9" d="M87.8,115c0.4,6.6,0.5,13.2-0.5,19.8c-0.2,1.4-1,3.7,0.3,4.9c1.2,1.1,4.3,0.6,5.8,0.4c2.6-0.2,8.2-0.3,9.5-3.1
		c0.3-0.6,0.3-1.3,0.3-2c0-6-0.1-11.9,0-17.9c0.1-3.9,0.1-8-0.6-11.9c-0.8-4.3-2.8-7.2-5-10.8"/>
	<path class="st5" d="M30.7,106.3c1.4-1.6,1.8-3.9,0.7-5.8c-1.9-3.2-1.5-7.5,1.9-9.7c1.7-1.1,3.6-1.1,5.5-0.6"/>
	<path class="st5" d="M29.8,99.9c-0.2,0.2-0.5,0.5-0.6,0.9c-0.9,1.7,0,3.5,0.2,4"/>
	<ellipse class="st10" cx="62.4" cy="69.7" rx="1.1" ry="1.5"/>
	<ellipse transform="matrix(0.9622 0.2724 -0.2724 0.9622 23.9369 -23.4004)" class="st10" cx="96.3" cy="74.5" rx="0.8" ry="1.5"/>
	<g>
		<path class="st1" d="M152.2,116.3c0.8,0.5,1.4,0.4,2.6,0.5c0.6,0,1.8,0.4,4.3,1c2.5,0.7,3.2,0.9,3.3,1.4c0.1,0.4-0.2,0.7-0.5,1.1
			c-1.9,2.3-4.4,3.5-4.7,3.7c-1.7,0.8-1.9,0.7-3.7,1.7c-0.3,0.2-1.2,0.7-2.3,1.4c-1.4,0.9-1.7,1.3-2.7,1.9c-0.5,0.3-2.5,1.7-5.2,2.6
			c-0.3,0.1-1.4,0.4-3.6,0.9c-1.7,0.4-2.2,0.5-3.2,0.8c-0.6,0.2-0.9,0.3-3,1c-3.6,1.3-4,1.4-4.9,1.6c-2.6,0.3-3.1,0.1-3.3-0.1
			c-0.3-0.4-0.2-0.9-0.2-1.4c0.1-1,0.5-1.5,1.3-2.9c0.9-1.6,0.6-1.3,1.1-2c0.8-1.2,1.6-2,2-3.1c0.1-0.3,0.1-0.6,0.1-0.9
			c0-0.6-0.2-1-0.3-1.1c-0.5-0.9-0.4-2.3-0.5-4c-0.2-2.6-0.5-3.8-0.6-4c0,0,0-0.2,0-0.3c0-0.4,0.3-0.6,0.5-0.7c1.3-1.1,3-2.1,3-2.1
			c0.7-0.4,0.5-0.3,0.9-0.6c0.5-0.3,1.8-1,3.8-1.9c0.5-0.2,1.9-0.7,4.7-1.7c0,0,1.5-0.5,4.3-0.8c0.1,0,0.3,0,0.6,0.1
			c0.4,0.1,0.6,0.5,0.7,0.6c1.7,2.6,1.1,0.7,4.1,5.7C151.4,115.5,151.6,115.9,152.2,116.3z"/>
		<path class="st8" d="M154.8,115c0.7,0.1,2,0.4,3,0.5c1.6,0.3,1.9,0.6,3.4,1c0.6,0.2,3.1,0.6,3.2,1.5c0.2,0.8,0.3,1.7-0.3,2.4
			c-1.3,1.3-2.4,2.9-4.1,3.7c-1.7,0.9-3.4,1.5-5,2.5c-2.6,1.6-4.9,3.9-7.8,5c-2.7,1.1-5.4,2.1-8.2,2.9c-3,0.9-6,2.1-9.1,2.5
			c-0.5,0.1-1.9,0.3-2.4,0.1c-0.9-0.3-0.6-2.1-0.6-3c0-1.1,0.7-2.1,1.2-3c0.8-1.5,1.8-3,2.7-4.4c0.3-0.5,0.6-1.1,0.8-1.6
			c0.4-1.1-0.4-1.9-0.6-3c-0.2-1.2-0.2-2.4-0.3-3.6c-0.1-0.6-0.4-1.3-0.4-1.9c0-0.6,0.4-0.6,0.8-0.9c1.7-1.5,3.7-2.7,5.7-3.7
			c1.9-0.9,4-1.3,6-1.9c1.6-0.6,3.3-1.1,4.9-1.5c0.4-0.1,0.8-0.4,1.1-0.2c0.2,0.1,0.5,0.5,0.6,0.7c0.9,1.1,1.5,2,2.2,3.2
			c0.7,1.1,0.6,0.9,1.4,1.9C153.5,114.6,154.5,115,154.8,115z"/>
		<path class="st9" d="M152.3,116.1c0.8,0.5,1.4,0.4,2.6,0.5c0.6,0,1.8,0.4,4.3,1c2.5,0.7,3.2,0.9,3.3,1.4c0.1,0.4-0.2,0.7-0.5,1.1
			c-1.9,2.3-4.4,3.5-4.7,3.7c-1.7,0.8-1.9,0.7-3.7,1.7c-0.3,0.2-1.2,0.7-2.3,1.4c-1.4,0.9-1.7,1.3-2.7,1.9c-0.5,0.3-2.5,1.7-5.2,2.6
			c-0.3,0.1-1.4,0.4-3.6,0.9c-1.7,0.4-2.2,0.5-3.2,0.8c-0.6,0.2-0.9,0.3-3,1c-3.6,1.3-4,1.4-4.9,1.6c-2.6,0.3-3.1,0.1-3.3-0.1
			c-0.3-0.4-0.2-0.9-0.2-1.4c0.1-1,0.5-1.5,1.3-2.9c0.9-1.6,0.6-1.3,1.1-2c0.8-1.2,1.6-2,2-3.1c0.1-0.3,0.1-0.6,0.1-0.9
			c0-0.6-0.2-1-0.3-1.1c-0.5-0.9-0.4-2.3-0.5-4c-0.2-2.6-0.5-3.8-0.6-4c0,0,0-0.2,0-0.3c0-0.4,0.3-0.6,0.5-0.7c1.3-1.1,3-2.1,3-2.1
			c0.7-0.4,0.5-0.3,0.9-0.6c0.5-0.3,1.8-1,3.8-1.9c0.5-0.2,1.9-0.7,4.7-1.7c0,0,1.5-0.5,4.3-0.8c0.1,0,0.3,0,0.6,0.1
			c0.4,0.1,0.6,0.5,0.7,0.6c1.7,2.6,1.1,0.7,4.1,5.7C151.5,115.3,151.7,115.7,152.3,116.1z"/>
		<path class="st9" d="M152.1,115.9c-0.7,0.5-2.1,1.4-3.2,2.1c-1.8,1.1-4.5,2.7-8.1,4.2c-2.7,1.2-6.8,2.5-11,3.4"/>
		<path class="st9" d="M150.8,114c-2.1,1.3-4.3,2.6-5.7,3.3c-4.9,2.5-8.8,4-10.5,4.5c-1.9,0.6-4.2,1.3-5.4,1.5"/>
		<circle class="st9" cx="141.8" cy="116.4" r="0.9"/>
		<circle class="st9" cx="137.7" cy="118.2" r="0.9"/>
	</g>
	<path class="st4" d="M52.3,119.3c-2.7-4.2-7.6-7.4-12.8-7.6c-0.4,0-0.7,0-1.1,0l0,0c-0.4,0-0.7,0-1.1,0c-5.2,0.1-10.2,3.3-12.8,7.6
		c-2,3.2-2.8,7.2-2.2,10.9c0.6,3.7,2.8,6.9,5.3,9.7c3.3,3.7,7.3,6.7,10.8,10.2v0l0,0l0.4,0.4l0.2-0.2c4.2-3.2,7.1-6.4,10.4-10
		c2.5-2.8,4.5-6.5,5.1-10.1C55.1,126.5,54.3,122.5,52.3,119.3z M36.7,136.7c-4.6,0-8.4-4.3-8.4-9.6c0-5.3,3.8-9.6,8.4-9.6
		c4.6,0,8.4,4.3,8.4,9.6C45.1,132.4,41.3,136.7,36.7,136.7z"/>
	<path class="st5" d="M43.3,191.1c0,0.6,0,1.4,0,2.2c0,0.8,0.1,1.6,0.1,2.2"/>
	<polyline class="st33" points="32.8,152.5 19.5,156.5 39.7,167.8 54.2,165.2 62.2,168.9 71.4,168.4 78.6,162 	"/>
	<circle class="st1" cx="35.7" cy="127" r="10.3"/>
	<path class="st9" d="M49.5,118.8c-2.7-4.4-7.6-7.8-12.8-7.9c-0.4,0-0.7,0-1.1,0c-0.4,0-0.7,0-1.1,0c-5.2,0.1-10.2,3.5-12.8,7.9
		c-2,3.4-2.8,7.5-2.2,11.4c0.6,3.8,2.8,7.2,5.3,10.1c3.3,3.8,10.8,10.6,10.8,10.6c3.1-3.1,6.5-6.1,9.5-9.3c3-3.3,5.9-6.9,6.6-11.4
		C52.2,126.3,51.5,122.2,49.5,118.8z M35.5,136.9c-5.5,0-10-4.5-10-10s4.5-10,10-10c5.5,0,10,4.5,10,10S41,136.9,35.5,136.9z"/>
	<g>
		<g>
			<path class="st4" d="M27.8,129.6c0.1,0.8,0.6,1.1,0.9,1.3c0.2,0.1,0.3,0.2,0.4,0.2c0,0.1,0.1,0.1,0.3,0.2c0.1,0,0.2,0,0.2,0
				c0,0,0.1-0.1,0.1-0.1c0.1,0,0.1,0.1,0.2,0.1c0,0.1,0.2,0.1,0.4,0.1c0.2,0,0.3,0,0.3-0.1c0-0.1,0-0.1,0.1-0.1
				c0.1,0,0.2,0.1,0.2,0.2c0.1,0.1,0.2,0.2,0.3,0.2c0.1,0,0.2-0.1,0.3-0.1c0-0.1,0.1-0.1,0.1-0.1c0,0,0.1,0,0.2,0.1
				c0,0.1,0.2,0.1,0.4,0.1l0.1,0c0.2,0,0.3-0.1,0.3-0.1c0-0.1,0.1-0.1,0.1-0.1c0.1,0,0.2,0,0.2,0.1c0.1,0,0.2,0,0.4,0
				c0.2-0.1,0.3-0.1,0.4-0.2c0-0.1,0.1-0.1,0.2-0.1c0.1,0,0.3,0,0.4-0.1s0.3-0.1,0.2-0.2c0-0.1,0-0.1,0.1-0.1c0.1,0,0.1,0,0.1,0.1
				c0,0.1,0.2,0.1,0.3,0l0,0c0.2-0.1,0.3-0.1,0.3-0.2c0,0,0-0.1,0.1-0.1c0,0,0.1,0,0.2,0c0.1,0,0.2,0,0.3,0c0.1,0,0.1-0.1,0.1-0.1
				c0,0,0-0.1,0.1-0.1c0.1,0,0.1,0,0.2,0c0.1,0,0.2,0,0.3,0c0.1,0,0.2-0.1,0.2-0.2c0-0.1,0-0.1,0.1-0.2c0.1,0,0.2,0,0.2,0
				c0.1,0,0.2,0,0.3-0.1c0.1-0.1,0.2-0.2,0.3-0.2c0-0.1,0.1-0.1,0.2,0c0.1,0.1,0.2,0.1,0.3,0.1c0.1,0,0.2-0.1,0.3-0.1
				c0-0.1,0.1-0.1,0.2-0.1c0.1,0,0.1,0,0.2,0c0,0,0.2,0,0.3,0s0.3-0.1,0.3-0.2c0-0.1,0.1-0.1,0.2-0.1c0.1,0,0.2,0.1,0.3,0
				c0.1,0,0.2-0.1,0.2-0.2c0-0.1,0.1-0.1,0.1-0.2c0.1,0,0.1,0,0.2,0.1c0.1,0.1,0.2,0.1,0.3,0c0.1,0,0.2-0.1,0.2-0.2
				c0-0.1,0-0.1,0.1-0.1c0.1,0,0.2,0,0.2,0c0.1,0,0.2,0.1,0.3,0c0.1,0,0.2-0.1,0.2-0.1s0-0.1,0.1-0.1c0.1,0,0.3-0.1,0.4-0.1
				c0.1,0,0.2-0.1,0.2-0.1c0.1-0.1,0.4-0.3,0.5-0.4c0.1-0.1,0.3-0.2,0.3-0.3c0.1-0.1,0.2-0.4,0.1-0.6c-0.1-0.2-0.2-0.5-0.3-0.9
				c-0.1-0.3-0.3-0.6-0.4-0.8c-0.1-0.1-0.3-0.4-0.3-0.6c-0.3-0.8-0.5-1-0.7-1.3c0,0-0.1-0.1-0.1-0.1c0.1,2.6-2.4,4.3-5.2,5.6
				c-2.3,1.1-4.8,1.5-5.5,1.6c-0.1,0-0.1,0,0,0c0.9-0.3,6-2.2,8.1-4.3c1.7-1.6,1.7-3.2,1.6-3.8c-0.1,0-0.1,0-0.2,0
				c-0.2,0-0.5,0.1-0.6,0.3c-0.4,0.5-0.3,1.5-0.3,1.5s0,0.7-1.5,0.7c-0.7,0-1.5-0.3-1.9-0.5c-0.2-0.1-0.2-0.2-0.1-0.4
				c0.1-0.1,0.1-0.2,0.1-0.4c0-0.2,0-0.5-0.1-0.6c-0.2-0.3-0.7-0.5-1.1-0.2c-0.4,0.3-0.8,1.2-0.9,1.7c0,0.1,0,0.1-0.1,0.2l0.2,1.3
				c0,0.1-0.1,0.2-0.2,0.3c0,0,0,0,0,0c-0.1,0-0.3-0.1-0.3-0.2l-0.1-0.5c0-0.1-0.1-0.1-0.1,0c-0.1,0.1-0.1,0.1-0.2,0.2
				c-0.1,0.1-0.1,0.2-0.1,0.3l0.1,0.7c0,0.1-0.1,0.2-0.2,0.3c0,0,0,0,0,0c-0.1,0-0.3-0.1-0.3-0.2l-0.1-0.4c0-0.1-0.1-0.1-0.1-0.1
				c0,0-0.1,0.1-0.1,0.1c-0.1,0.1-0.1,0.2-0.1,0.3l0.1,0.7c0,0.1-0.1,0.2-0.2,0.3c0,0,0,0,0,0c-0.1,0-0.3-0.1-0.3-0.2l-0.1-0.4
				c0-0.1-0.1-0.1-0.2-0.1c0,0-0.1,0.1-0.1,0.1c-0.1,0-0.1,0.2-0.1,0.2l0.1,0.8c0,0.1-0.1,0.2-0.2,0.3c0,0,0,0,0,0
				c-0.1,0-0.3-0.1-0.3-0.2l-0.1-0.8c-0.9,0.5-1.6,0.7-2,0.9C28,128.7,27.7,128.5,27.8,129.6z"/>
		</g>
	</g>
	<g>
		<path class="st1" d="M89,135.2c-2-3.3-5.7-5.8-9.5-5.9c-0.3,0-0.6,0-0.8,0c-0.3,0-0.6,0-0.8,0c-3.9,0.1-7.6,2.6-9.5,5.9
			c-1.5,2.5-2.1,5.6-1.6,8.5c0.5,2.8,2.1,5.4,3.9,7.5c2.4,2.9,8,7.9,8,7.9c2.3-2.3,4.8-4.5,7.1-6.9c2.2-2.4,4.3-5.1,4.9-8.5
			C91,140.8,90.5,137.7,89,135.2z M78.6,148.7c-4.1,0-7.4-3.3-7.4-7.4s3.3-7.4,7.4-7.4c4.1,0,7.4,3.3,7.4,7.4S82.7,148.7,78.6,148.7
			z"/>
		<path class="st3" d="M91,135.5c-2-3.1-5.7-5.5-9.5-5.6c-0.3,0-0.6,0-0.8,0l0,0c-0.3,0-0.6,0-0.8,0c-3.9,0.1-7.6,2.5-9.5,5.6
			c-1.5,2.4-2.1,5.3-1.6,8.1c0.5,2.7,2.1,5.2,3.9,7.2c2.4,2.7,5.4,5,8,7.6v0l0,0l0.3,0.3l0.2-0.1c3.2-2.3,5.3-4.7,7.7-7.5
			c1.8-2.1,3.3-4.8,3.8-7.5C93.1,140.9,92.5,137.9,91,135.5z M79.4,148.4c-3.4,0-6.2-3.2-6.2-7.1s2.8-7.1,6.2-7.1
			c3.4,0,6.2,3.2,6.2,7.1S82.9,148.4,79.4,148.4z"/>
		<circle class="st1" cx="78.7" cy="141.3" r="7.6"/>
		<path class="st9" d="M88.9,135.2c-2-3.3-5.7-5.8-9.5-5.9c-0.3,0-0.6,0-0.8,0c-0.3,0-0.6,0-0.8,0c-3.9,0.1-7.6,2.6-9.5,5.9
			c-1.5,2.5-2.1,5.6-1.6,8.5c0.5,2.8,2.1,5.4,3.9,7.5c2.4,2.9,8,7.9,8,7.9c2.3-2.3,4.8-4.5,7.1-6.9c2.2-2.4,4.3-5.1,4.9-8.5
			C91,140.7,90.4,137.7,88.9,135.2z M78.6,148.6c-4.1,0-7.4-3.3-7.4-7.4c0-4.1,3.3-7.4,7.4-7.4c4.1,0,7.4,3.3,7.4,7.4
			C86,145.3,82.7,148.6,78.6,148.6z"/>
		<g>
			<g>
				<path class="st3" d="M78.8,138.8c0.8,0,1.4-0.6,1.4-1.4c0-0.8-0.6-1.4-1.4-1.4c-0.8,0-1.4,0.6-1.4,1.4
					C77.4,138.2,78,138.8,78.8,138.8z"/>
				<path class="st3" d="M81.2,140c-0.1-0.2-0.5-0.8-1.5-0.9l-2.1,0c-1-0.1-1.5,0.6-1.5,0.8c0,0-0.7,2.2-0.6,2.8
					c0.1,0.3,0.5,0.6,0.9,0.9c0.2,0.1,0.2,0.3,0.2,0.5l-0.5,1.6c-0.1,0.3,0.1,0.5,0.4,0.5H81c0.3,0,0.5-0.3,0.4-0.5l-0.5-1.7
					c-0.1-0.2,0-0.4,0.2-0.5c0.4-0.3,0.7-0.5,0.8-0.8C82,142.2,81.2,140,81.2,140z M77.8,142.5c-0.1,0-0.2,0.1-0.3,0.1
					c-0.4,0-0.8-0.4-0.8-0.8s0.4-0.8,0.8-0.8c0.4,0,0.8,0.3,0.8,0.8c0.1-0.1,0.3-0.1,0.4-0.2c0,0,0,0,0,0c0.2,0,0.3,0,0.3,0
					c0.3,0.1,0.7,0.2,1.1,0.4c0.3,0.1,0.3,0.5,0.1,0.7c-0.3,0.2-0.7,0.3-1.2,0.3c0,0-0.1,0-0.1,0h0c-0.1,0-0.2,0-0.3,0
					C78,142.9,77.8,142.7,77.8,142.5z"/>
			</g>
		</g>
	</g>
	<path class="st5" d="M106.2,74.6c1.2,1.2,2.6,5.1,1,9.9c-0.5,1.5-2,6.3-7.5,8.7c-0.4,0.2-7.3,3.2-13.8-0.2
		c-1.2-0.6-2.6-1.6-3.1-2.1"/>
	<path class="st9" d="M52.6,65.8c-8.4,4.5-6.7,17.1,0.8,21.4c3.8,2.2,8.7,2.4,12.8,0.7"/>
	<polyline class="st5" points="32.5,151.7 17.1,156.3 39.6,169 54.8,166.3 62.1,170.2 71.8,169.6 79.1,162.8 	"/>
	<path class="st5" d="M120.9,62.6c3.7-2.2,6.5,0.5,7.7,4c3.4,9.6-1.1,20.5-10.5,24.7"/>
	<path class="st9" d="M50.8,44.6c-3.1-6.5-15.2-10.8-22-6.9c-6.6,3.8-9.8,13.7-9.5,20.9c0.1,1.8,0.3,3.5,0.8,5.2
		c1.3,4.7,3.5,9.4,6.9,12.9c3.2,3.2,8.3,6.9,13,7.5c2.9,0.3,6.6-1.4,7.7-4.2"/>
	<path class="st5" d="M52.4,65.9c-3.3-6.4-3.9-14-1.6-20.8c5.6-16.6,30-21.5,45.3-14.9c10.1,4.3,15.4,10.5,17.8,21
		c1.5,6.4-1.4,15-5.3,20.2c-2,2.7-4.1,4.6-5.7,5.8"/>
	<path class="st5" d="M60.3,122.6c0,4.9,0,9.9,0.6,14.8c0.4,3.2-2,2.9-4.5,3c-3.6,0.1-6.6-0.1-10.2-0.2"/>
	<path class="st5" d="M84.1,31.5c0.1-0.4,1.4-4.1-0.8-7.1c-0.8-1.1-1.8-1.7-2.5-2.1"/>
	<path class="st5" d="M86.9,30.4c-0.1-0.4-0.2-1.7,0.5-3c0.4-0.7,1-1.2,1.3-1.4"/>
	<path class="st5" d="M210.3,137.5c-0.3,0-0.8,0.1-1.2,0.4c-1.7,1-2.8,3-2.4,5.7c0.5,3.3-0.6,7.6-4.3,8.1c-0.6,0.1-1.2,0-1.7-0.2
		c-1.9-0.8-2.3-3.2-2.3-3.5"/>
	<path class="st5" d="M208.1,143.7c0.3-0.1,0.6-0.3,0.9-0.5c1.5-1.2,1.4-3.1,1.3-3.7"/>
</g>
</svg>
