<?xml version="1.0" encoding="utf-8"?>
<!-- Generator: Adobe Illustrator 19.1.0, SVG Export Plug-In . SVG Version: 6.00 Build 0)  -->
<svg version="1.1" xmlns="http://www.w3.org/2000/svg" xmlns:xlink="http://www.w3.org/1999/xlink" x="0px" y="0px"
	 viewBox="0 0 220 220" style="enable-background:new 0 0 220 220;" xml:space="preserve">
<style type="text/css">
	.st0{fill:#FACD66;}
	.st1{fill:#F8F9FA;}
	.st2{fill:#55B599;}
	.st3{fill:#F29699;}
	.st4{fill:#6CC3D5;}
	.st5{fill:none;stroke:#707070;stroke-linecap:round;stroke-miterlimit:10;}
	.st6{fill:#FFFFFF;}
	.st7{fill:#5DCC9D;}
	.st8{fill:#F0754F;}
	.st9{fill:none;stroke:#707070;stroke-miterlimit:10;}
	.st10{fill:#707070;}
	.st11{fill:none;stroke:#231F20;stroke-miterlimit:10;}
	.st12{fill:none;stroke:#8895A7;stroke-miterlimit:10;}
	.st13{fill:#707070;stroke:#231F20;stroke-width:2;stroke-miterlimit:10;}
	.st14{fill:#F3969A;}
	.st15{stroke:#707070;stroke-linecap:round;stroke-miterlimit:10;}
	.st16{fill:#6CC3D5;stroke:#707070;stroke-width:2;stroke-miterlimit:10;}
	.st17{fill:#F8F9FA;stroke:#707070;stroke-width:0;stroke-miterlimit:10;}
	.st18{fill:#F8F9FA;stroke:#F8F9FA;stroke-miterlimit:10;}
	.st19{fill:#707070;stroke:#707070;stroke-miterlimit:10;}
	.st20{fill:#DBEAF9;}
	.st21{fill:none;stroke:#FACD66;stroke-width:3;stroke-linecap:round;stroke-miterlimit:10;}
	.st22{fill:none;stroke:#F8F9FA;stroke-width:0.3;stroke-linecap:round;stroke-miterlimit:10;}
	.st23{fill:#F0754F;stroke:#707070;stroke-linecap:round;stroke-miterlimit:10;}
	.st24{fill:#F0754F;stroke:#707070;stroke-miterlimit:10;}
	.st25{fill:#F29699;stroke:#707070;stroke-miterlimit:10;}
	.st26{fill:#F0754F;stroke:#231F20;stroke-linecap:round;stroke-miterlimit:10;}
	.st27{fill:#707070;stroke:#707070;stroke-linecap:round;stroke-miterlimit:10;}
	.st28{fill:#F8F9FA;stroke:#707070;stroke-miterlimit:10;}
	.st29{fill:#EE6356;}
	.st30{fill:none;stroke:#6D6A69;stroke-linecap:round;stroke-miterlimit:10;}
	.st31{fill:#F9D6DA;}
	.st32{fill:none;stroke:#DC8537;stroke-miterlimit:10;}
	.st33{fill:none;stroke:#F29699;stroke-width:2;stroke-miterlimit:10;}
</style>
<g id="Layer_1">
	<g>
		<circle class="st0" cx="96.1" cy="118.4" r="80.7"/>
		<circle class="st17" cx="177.8" cy="178" r="26.9"/>
		<path class="st4" d="M103.5,33.2c-0.1,0.3-0.4,1.1-2.4,2.1c-1.7,0.8-5.4,2-6.2,0.8c-0.6-0.9,0.7-2.8,1.8-3.8
			c1.8-1.6,4.8-2.6,6.2-1.3C103.4,31.4,103.7,32.4,103.5,33.2z"/>
		<path class="st4" d="M105.6,21.6c-0.3,0.4-1.7-0.1-4.3-1.1c-3.6-1.4-4.6-2.4-5.2-3.1c-0.3-0.4-1.4-1.8-1-2.6
			c0.5-0.9,2.5-0.5,2.9-0.4c0.5,0.1,2.3,0.5,4.6,2.7C103.8,18.2,106.2,20.8,105.6,21.6z"/>
		<path class="st4" d="M117.3,20.1c-2.1-1-5.4-2.9-3.9-5.4c1.6-2.6,5.3,1.6,6.2,2.8c0.7,1,1.4,2,1.9,3c0.5,1.2-0.4,0.9-1.2,0.7
			c-0.8-0.2-1.6-0.5-2.4-0.9C117.7,20.3,117.5,20.2,117.3,20.1z"/>
		<path class="st4" d="M134.3,14.6c0.3-0.5,0.7-1,1.1-1.4c1.3-1.2,3.6-3.4,5.5-2.5c1.5,0.7,0.9,2.3,0.3,3.4
			c-0.9,1.4-2.1,2.6-3.5,3.5c-0.7,0.4-1.4,0.8-2.1,1.2c-0.5,0.2-1,0.4-1.5,0.4c-1-0.1-1.3-1-1.1-1.8
			C133.1,16.4,133.8,15.5,134.3,14.6z"/>
		<path class="st4" d="M148.9,51.6c0.1-0.2,0.3-0.7,1.6-1.2c1.1-0.4,3.5-1.1,4-0.3c0.3,0.6-0.6,1.8-1.3,2.4
			c-1.2,0.9-3.1,1.5-3.9,0.6C148.9,52.7,148.7,52.1,148.9,51.6z"/>
		<path class="st4" d="M153.2,34.5c-0.1-1.2,2.4-2.1,3.3-2.3c1.8-0.5,3.8-0.9,5.7-0.7c0.5,0.1,1.1,0.2,1.3,0.7
			c0.2,0.4,0.3,1.2,0,1.6c-1.4,1.8-3.5,2.4-5.7,2.5c-1,0-2,0-2.9-0.2c-0.5-0.1-1-0.3-1.4-0.7C153.4,35,153.3,34.7,153.2,34.5z"/>
		<path class="st4" d="M155.4,17.7c-0.4-1,1.7-2.4,4.5-4c3.3-1.9,6.1-3,9.2-3.5c1.4-0.2,4-0.5,4.5,0.5c0.1,0.1,0.3,0.7-0.5,2
			c-0.7,1.1-2.9,3.8-12.2,5.4C157.6,18.8,155.7,18.6,155.4,17.7z"/>
		<path class="st3" d="M168.2,153.1c0,0.2,1.3,0.1,1.5,0.1c1.2,0,2.3,0.2,3.4,0.3c2.5,0.3,4.9,1.1,7.1,2.1c1.6,0.8,3.4,1.7,4.5,3.1
			c0.5,0.6,1.4-0.1,1.6-0.8c0.2-0.5-0.1-1-0.7-2.1c-1.5-2.3-2.2-3.4-3.1-3.9c-0.8-0.5-1.8-0.7-4.4-0.7
			C173.3,151.5,168.1,152.7,168.2,153.1z"/>
		<path class="st4" d="M192.2,162.7c0.2-0.6,0.9-1.2,1.4-1.6c1-0.8,2-1.4,3.2-2.1c0,0,0.3,0.2,0.3,0.2c1,0,0.9,0.9,2.3,2.8
			c1.3,1.7,1.7,2.2,2.9,4.6c0.9,1.8,1.3,3,1.1,3.3c-0.5,1-0.8-0.5-2.5-1.5c-0.6-0.4-0.9-0.8-1.7-1.3c-3.5-2.2-5.5-1.9-7.1-3.1
			C191.8,163.6,191.8,163.5,192.2,162.7z"/>
		<path class="st1" d="M44.9,127.4c5.8-0.1,10.7-2.2,11.3-2.5c3.3-1.5,3.4-1.9,7-3.4c0.6-0.3,2.5-1,5-1.8c3.2-1,4-1,6.2-1.6
			c1.1-0.3,5.5-1.6,10.2-4.6c0.5-0.3,2.2-1.6,5.8-4.3c2.7-2,3.6-2.7,5.1-3.8c0.9-0.6,1.5-1,5.2-3.2c6.4-3.8,5.7-3.3,6.9-4.4
			c0.4-0.3,1.3,0.5,1.5,0.7c0.7,0.8,1.8,1.1,2.8,1.3c0.5,0.1,1.8,0.1,2.3,0c2.7-0.2,5.7-0.5,7.9-3.1c0.7-0.8,1.4-1.9,1.6-3
			c0.5-2.5,0.5-5,0.2-7.5c-0.1-0.8-0.6-1.9-0.8-2.7c-1.1-4.4-3-5.6-2.4-9c0.7-3.4,3.3-5.4,3.7-5.7c0.4-0.3,3.1-2.2,6.6-1.7
			c1.7,0.2,5.2,1.2,5.7,3.5c0.2,0.7,0.1,1.8-0.5,2.8c-0.2,0.4-0.7,1.1-1.5,1.2c-1.6,0.3-2.7-2.3-4.3-2.1c-1.2,0.2-1.9,1.9-2,2.2
			c-1.7,4.1,4,7.6,5.2,13.3c1.3,6.3-0.4,10.3-4.7,15.4c-2.4,2.9-4.5,6-5.7,11.1c-1,4.4,0.6,6.8-0.1,10.6
			c-1.4,7.2-6.7,14.7-11.6,15.8c-0.3,0.1-1.2,0.1-1.8,0.6c-1.8,1.6-1.3,4.6-0.8,6.7c0.8,3.6,1.7,7.2,3.1,10.7
			c1.5,3.9,3.5,7.6,5.2,11.5c1.3,3.2,2.5,6.4,3.6,9.6c1.1,3.2,1.4,6.6,2.3,9.8c0.8,2.8,2.4,5.2,3.7,7.8c0.8,1.6,1.6,2.5,1.3,3.7
			c-0.5,2-3.5,3-4.3,3.2c-0.8,0.2-1.8,0.4-3.9,0.7c-1.3,0.2-1.5,0.2-2.4,0.3c-3,0.5-3,0.8-5,1.1c-1.7,0.2-3.3,0.1-5.8,0
			c-1.3-0.1-1.6-0.1-2.5-0.1c-2.1,0.2-3.6,0.9-4.1,1.1c-2.1,0.9-5.2,0.9-11.5,0.9c-3.8,0-7.5,0-12.4-0.5c-2-0.2-5.3-0.6-9.3-0.6
			c-0.7,0-2,0-3.6,0.1c-3.2,0.2-3.7,0.5-5.4,0.5c-3,0-5.4-0.9-6.2-1.2c-3.2-1.3-2.7-2.3-6.1-3.7c-2.2-0.9-3.2-0.9-4.6-2.1
			c-1.1-1-1.6-2.1-2.1-3c-1-1.9-2.8-7.9-2.2-8.3c0.3-0.2-0.8-2.5,0.4-2.2c1.1,0.3,1.9,3,2.8,2.9c1.3-0.2,2.7,1,3.5,0.4
			c1.5-1,1-1.3,1.2-2.3c0.3-1.5-0.6-2.6-1-4.6c-0.4-1.8-0.9-2.9-0.7-4.3c0.1-1.4-0.2-2.3,1.3-5.2c1.7-3.3,1.6-3.6,2.7-5.2
			c0.8-1.1-0.3-0.5,2.6-3.1c4.6-4.2,6.1-5.3,7.9-6.6c2.9-2.1,2-1.6,3.1-3c0.6-0.8,2.3-1,1.3-3.3c-0.5-1.1-2.5-4.2-1.7-2.7"/>
		<path class="st1" d="M60,149.7c0,0.1-2.6,1.2-6.1,0.3c-2.2-0.6-3.6-1.4-5-2.8c-0.7-0.7-2.7-2.8-4.8-6.7c-0.9-1.6-1.5-3.3-2.1-5
			c-0.6-1.7-1.1-3.5-1.4-5.3c-0.3-1.7-0.9-3.8-0.3-5.6c0.2-0.5,0.4-0.9,0.7-1.3c0.8-1,1.9-1.1,3-1.5l-0.7,2.1l-0.4,1.5l0.3,1
			l2.2,0.6"/>
		<polyline class="st1" points="57.5,139.3 57.1,140.8 57.4,142.8 		"/>
		<path class="st18" d="M140.6,63.5l-0.1-0.2l-0.8-2.9l-0.6,0.2l-0.6,0.2l-2.8,0.8c0.1,0-0.3,0.1-0.3,0.1l-2.8,0.8l-0.6,0.2
			l-0.6,0.2l0.8,2.9l0.1,0.2L140.6,63.5z"/>
		<path class="st8" d="M185.3,166.1c0.8,1.3-5.9,6.4-11.5,12.6c-0.5,0.6-3.1,3.5-4.7,5.6c-0.9,1.3-1.1,1.6-3.1,3.8c0,0-1.5,1.6-5,7
			l-1.6,2.6c0.2-0.3-3.1-3.3-3.3-3.6c-1.3-2.1-2.9-4.8-4-8.3c-0.2-0.7-0.4-0.1-0.3-1.1c0.1-1.2,0.8-2.7,1.6-4.2c1.4-2.4,2-3.5,3.6-5
			c0.5-0.5,3-2.6,7.5-4.8c1.7-0.8,4.3-1.6,9.5-3.1c0,0,3-0.9,8.7-1.7C184.6,165.8,185.1,165.8,185.3,166.1z"/>
		<path class="st7" d="M179.8,205.1c4.7-0.1,6.3-1.1,10.6-3.1c2.2-1,5.9-3.6,7.3-5.7c1.6-2.4,1.7-2.4,2.1-5.3
			c0.4-3.2,0.6-6.7-0.3-9.8c-0.6-2.1-2.8-6.7-3.9-8.6c-0.7-1.2-2.8-3.5-3.9-4.8c0,0-1.1-0.7-1.1-0.7c0.6,5.1,1,10.3,0.5,15.5
			c-0.4,3.5-1.3,6.9-2.2,10.3c-0.9,3.4-2,7.5-4.5,10.2C183.2,204.6,181.8,205.1,179.8,205.1z"/>
		<path class="st5" d="M61.7,155.8c-1.2,1.2-3,3.1-5.3,5.1c-5.3,4.8-5.6,4.2-7.5,6.3c-4,4.6-6.8,12.3-5,16.3c0.1,0.1,0.9,2,1,4.5
			c0.1,1.8-0.3,2.3-0.5,2.6c-1.1,1.1-3.3,0.3-3.6,0.2c-0.4-0.1-1.3-0.6-2.1-1.5c-0.8-1-0.9-1.9-1.1-1.9c-0.4,0-0.8,1.5-0.8,3
			c0.1,3.5,3,6,3.8,6.6c2,1.7,5.2,3.4,6.2,2.4c0.5-0.4,0.6-1.5,0.2-2.4c-0.2-0.4-0.5-0.7-0.7-0.9"/>
		<path class="st5" d="M66.3,168.3c0.8-0.2,1.9-0.4,3.3-0.3c3.1,0.4,5,2.5,5.6,3.2"/>
		<path class="st5" d="M69,175c5.2-3.6,9.9-5.4,13.2-6.4c3.3-1,11.9-3.5,21-0.7c5.8,1.8,7.1,4.2,7.5,5.1c0.6,1.4,0.5,2.7,0.2,5.3
			c-0.6,5.8-2.8,10.4-3.6,12c-2,3.9-2.7,3.7-3.1,5.9c-0.4,2.6,0.4,4.7-1.1,6.5c-0.7,0.9-1.5,1.3-2,1.5c-6.9,3.3-29.6-0.9-40.8,0.6
			c-1.1,0.1-4,0.6-7.4-0.6c-2.7-1-3.6-1.8-4.8-3"/>
		<path class="st5" d="M104.9,178.3c0.5-0.2,1.4-0.3,2.4-0.1c2.2,0.5,3.2,2.6,3.3,2.9"/>
		<path class="st5" d="M105.1,203.6c1.3,0.4,2.9,0.7,4.8,0.8c3.4,0.2,6.2-0.6,7.8-1.2"/>
		<path class="st5" d="M101.3,142.9c0.1,0.2,0.7,1.3,2.1,1.7c1.5,0.3,2.6-0.5,2.7-0.6"/>
		<circle class="st19" cx="105.9" cy="114.2" r="1.3"/>
		<path class="st5" d="M52.5,127.8c1.2,3.3,3.3,6.4,6.3,9.1"/>
		<path class="st5" d="M90.4,115.2c0.6,1.4,0.9,2,2.4,4.4c3.1,4.9,6.5,8.1,9.4,10.8c2.1,2,3.8,3.3,5.9,4.9c5.8,4.6,6.7,6.1,8.7,6.4
			c0.4,0,1.7,0.1,2.4,1c0.5,0.6,0.6,1.4,0.7,2"/>
		<path class="st5" d="M116.8,147.7c0-1.5,0.2-2.7,0.4-3.5c0.5-1.7,1-1.9,1.2-3.4c0.1-0.5,0.2-1.7,0.2-3v0c0-0.5-0.1-1-0.3-1.5
			c-0.2-0.4-0.2-0.4-0.3-0.6"/>
		
			<ellipse transform="matrix(0.9557 -0.2944 0.2944 0.9557 -36.6443 41.0432)" class="st10" cx="118" cy="142.2" rx="1.3" ry="1.7"/>
		<path class="st9" d="M187.4,158.1c-2.4-0.1-4.3,1.7-4.1,4.3c0.1,1.9,1.6,3.5,3.3,4.2c1.9,0.7,4.2,0.1,5-1.8
			C193,161.8,190.6,158.2,187.4,158.1z"/>
		<path class="st10" d="M187.8,161.7c-0.4,0-0.7,0.3-0.6,0.7c0,0.3,0.2,0.5,0.5,0.7c0.3,0.1,0.6,0,0.8-0.3
			C188.6,162.3,188.3,161.8,187.8,161.7z"/>
		<path class="st9" d="M187.6,159.8c-1.5-0.1-2.6,1-2.5,2.6c0.1,1.1,1,2.2,2,2.6c1.2,0.5,2.6,0.1,3.1-1.1
			C191,162.2,189.5,159.9,187.6,159.8z"/>
		<path class="st9" d="M183.6,163.6c-0.7,0-2.7,0.2-3.9,0.3c-4.1,0.4-9.8,1-15.7,3.6c-0.8,0.4-6.5,2.8-9.6,6.3
			c-1.1,1.3-1.9,2.7-1.9,2.7c-1,1.7-1.3,2.8-1.5,3.9"/>
		<path class="st9" d="M185.3,166.2c-4.7,4.9-8.6,9.2-11.5,12.6c-6.5,7.5-4.2,5.5-7.8,9.4c0,0-1.7,1.9-5.8,8.3
			c-0.1,0.2-0.3,0.5-0.4,1c-0.1,0.3-0.1,0.6-0.2,0.8"/>
		<path class="st9" d="M188.3,167.1c0.3,2.6,0.4,6,0.2,10c-0.1,2-0.5,6.3-1.8,11.6c0,0-1.1,4.5-3.7,10.1c-0.2,0.4-1.1,2.3-2.8,4
			c-0.8,0.8-1.6,1.4-2.5,1.7c-0.6,0.2-1.7,0.5-2.1,0.5"/>
		<path class="st9" d="M190.5,166.6c1,1,2.2,2.4,3.5,4.2c0.9,1.3,2.3,3.2,3.6,5.9c0.9,1.9,2,4.2,2.3,7.4c0.2,2,0.1,3.6,0,5.1
			c-0.2,2.8-0.4,4.1-0.8,4.9c-0.3,0.5-0.5,1.1-0.7,1.4"/>
		<path class="st9" d="M192.2,164.4c0.8,0.1,1.9,0.4,3.2,0.8c1.3,0.4,3.1,1.1,4.9,2.5c0.8,0.6,2.5,2.3,3.6,3.9"/>
		<path class="st9" d="M191.3,160.5c0.4-0.4,1.2-1.2,1.8-1.6c0.7-0.5,1.3-0.9,1.9-1.3"/>
		<path class="st9" d="M181.7,151.4c0.5,0.3,1.1,0.7,1.8,1.3c0.1,0.1,0.5,0.5,1,1.2c1,1.4,1.6,2.9,1.9,3.8"/>
		<path class="st9" d="M161.4,156.9c1.1-0.5,1.9-1,3.8-1.3c2.9-0.5,5.1-0.2,6.7,0.1c3.8,0.6,6.5,1.8,7.9,2.5
			c1.4,0.7,2.9,1.8,3.7,2.4"/>
		<circle class="st9" cx="177.8" cy="178.2" r="26.9"/>
		<path class="st9" d="M130.3,64.6l-0.1-0.2l-0.8-2.9l0.6-0.2l0.6-0.2l2.8-0.8c0,0,0.3-0.1,0.3-0.1l2.8-0.8l0.6-0.2l0.6-0.2l0.8,2.9
			l0.1,0.2"/>
		<polyline class="st9" points="135.2,59.5 134.8,57.8 132.5,58.4 132.2,58.5 131.3,58.8 131.8,60.5 		"/>
		<path class="st5" d="M69.9,130.6c-1.4,1.4-3.6,3.9-5.1,7.8c-1.6,4.2-1.6,7.9-1.5,9.8"/>
		<path class="st21" d="M60.6,151.3c2,4.1,4.6,7.7,8.6,10c6.2,3.5,14.5,3.9,20.6,0"/>
		<path class="st5" d="M67.1,128.6c-0.1,0.8-0.4,1.9-1.1,3.1c-1.1,1.9-2.4,2.7-4.6,4.6c-2.7,2.4-3.3,2.7-3.7,3.7
			c-0.6,1.6-0.1,3.1,0.3,4.3c2.5,7.1,3.8,10.8,8.1,14.3c1.5,1.2,5.8,4.7,12.3,5.1c1.9,0.1,6.7,0.4,11.5-2.7c4.4-2.8,6-6.6,7.6-10.5
			c0.6-1.5,1-2.9,0.8-4.5c-0.2-1.2-0.8-2.2-2-4c-1.9-2.9-2.7-3.2-3.8-5.5c-0.6-1.2-0.9-2.2-1.1-2.9c-0.5-1.8-0.6-3.4-0.7-4.5"/>
		<path class="st8" d="M53.1,108.3c-0.2,1.8-1.1,3.2-2.1,4.9c-1.6,2.7-3.1,5.5-4.4,8.4c-0.5,1.1-2.5,4.2-1.4,5.5
			c1,1.3,1.4,2.1,3.3,1.9c3.6-0.4,7.1-1.3,10.4-2.7c3.4-1.4,6.3-3.3,9.8-4.4c5.6-1.9,11.5-3,16.6-5.9c4.9-2.7,9.2-6.3,13.9-9.5
			c5.1-3.4,10.5-6.3,14.9-10.6c0.7-0.7,1.4-1.4,1.8-2.4c0.7-1.6-0.1-3.3-1.4-4.4c-1.6-1.3-3.7-2.1-5.7-2.4c-3.2-0.6-6.3-1.1-9.5-1.5
			c-1.1-0.1-2.3-0.2-3.4-0.6c-2.2-0.7-3-2.3-4.4-4c-1.5-1.8-3.3-3.2-5-4.9c-0.8-0.8-1.5-2.1-2.3-2.8c-0.8-0.7-1.3-0.1-2.2,0.1
			c-4.3,0.8-8.6,2.2-12.6,4c-3.7,1.7-7.4,3.6-10.8,5.7c-2.8,1.7-5.5,3.6-8.1,5.6c-0.6,0.4-1.2,0.9-1.3,1.6c-0.1,0.5,0,1,0.1,1.4
			c0.5,2.6,0.9,5.4,1.7,7.9c0.7,2.4,1.8,4.6,2.3,7C53.2,107.1,53.2,107.7,53.1,108.3z"/>
		<path class="st9" d="M51.2,107.8c-0.2,1.8-1.2,2.6-2.5,4.5c-0.6,0.9-1.7,3.1-3.8,7.6c-2.2,4.6-2.6,5.9-1.9,6.7
			c0.5,0.6,1.4,0.6,2.2,0.6c5.8-0.1,10.7-2.2,11.3-2.5c3.3-1.5,3.4-1.9,7-3.4c0.6-0.3,2.5-1,5-1.8c3.2-1,4-1,6.2-1.6
			c1.1-0.3,5.5-1.6,10.2-4.6c0.5-0.3,2.2-1.6,5.8-4.3c2.7-2,3.6-2.7,5.1-3.8c0.9-0.6,1.5-1,5.2-3.2c6.4-3.8,7.1-4.3,8.3-5.4
			c3.8-3.5,4-4.5,3.9-5c-0.2-0.9-1-1.4-1.9-2c-1.6-1-2.9-1.1-6-1.6c-3.4-0.6-2.7-0.7-4.4-0.9c-2.8-0.3-5,0-7.1-0.8
			c-0.5-0.2-1-0.5-1.6-1c-0.8-0.8-1.2-1.6-1.3-1.8c-0.8-1.9-2.9-3.3-5.3-5.6c-3.7-3.4-5.1-5.5-5.2-5.7c0-0.1-0.2-0.3-0.5-0.4
			c-0.6-0.4-1.3-0.3-1.7-0.2c-3.3,0.6-6.9,1.9-6.9,1.9c-1.4,0.5-1.2,0.4-2,0.7c-1.1,0.4-3.8,1.4-7.6,3.4c-0.9,0.5-3.4,2-8.3,5
			c0,0-2.5,1.6-6.4,5.4c-0.1,0.1-0.4,0.4-0.6,1c-0.3,0.8,0,1.5,0,1.7c1.8,5.8-0.3,2.6,3.6,13.2C51.1,105.7,51.4,106.5,51.2,107.8z"
			/>
		<path class="st9" d="M51.2,107.2c1.6-0.4,4.8-1.4,7.2-2.2c3.8-1.3,9.6-3.5,16.3-7c5.1-2.6,12-7.1,18.7-12.3"/>
		<path class="st9" d="M50,102.9c4.6-1.5,9.2-3.3,12-4.5c9.8-4.1,16.8-8.4,19.7-10.2c3.3-2.1,7.1-4.8,8.9-6.1"/>
		<circle class="st9" cx="64.7" cy="92.5" r="1.7"/>
		<circle class="st9" cx="72.4" cy="88.7" r="1.7"/>
		<path class="st5" d="M43.4,119.9c-0.6,0.2-1.3,0.5-2.2,0.8c-1.7,0.7-2,0.9-2.3,1.2c-1.2,1.3-1.2,3.2-1.1,4.6
			c0.6,7.9,4.1,14.3,4.1,14.3c2.1,3.9,4.1,6,4.8,6.7c1.4,1.4,2.7,2.7,4.8,3.7c3.4,1.6,6.8,1.1,8.6,0.7"/>
		<path class="st22" d="M118.2,141.4c0.1,0,0.6,0.4,0.5,1.1c0,0.4-0.2,0.6-0.2,0.7"/>
		<path class="st5" d="M117.6,198.2c0.1,2,1.5,3.9,3.5,4.3c1.7,0.4,4.5-0.5,4.8-2.5c0.2-1.7-1.7-3.7-2.5-5.1
			c-2.6-4.6-3.4-10.1-5-15.2c-1.7-5.5-4.7-10.5-7-15.7c-3.2-7.3-5.7-15.1-4.8-23.1c0.1-0.7,1.1-0.6,1.5-0.7
			c7.5-1.9,12.8-10.7,12.6-18.1c-0.1-3.4-1-6.7,0.3-9.9c1-2.7,2.7-5.1,4.2-7.5c3-5,7.1-11.1,5.9-17.2c-0.9-4.5-7.5-9.6-4.7-14.3
			c0.3-0.6,0.9-1.1,1.6-1.2c1.8-0.2,2.5,2.4,4.3,2c0.8-0.2,1.2-0.9,1.5-1.2c0.6-0.9,0.7-2,0.5-2.8c-0.5-2.3-4-3.3-5.7-3.5
			c-3.9-0.5-8.1,1.7-9.6,5.3c-1.8,4.2,0.8,7.2,1.7,11.1c1.1,4.6,0.9,11.8-2.9,14.2c-0.8,0.5-2.4,1.2-5.3,0.6"/>
		<path class="st4" d="M147.9,85.2l-0.6-2.3c0-0.2-0.1-0.5-0.1-0.7c-1.1-4.5-2.7-8.9-3.9-13.4c-0.1-0.5-0.3-0.6-0.7-0.9
			c-0.4-0.2-0.8-0.5-0.8-1.1c0-0.3,0.2-0.6,0.3-0.8c0.3-0.7,0.1-1.4-0.2-2.1c-0.1-0.4-0.6-0.6-1-0.5l-8.9,2.5
			c-0.4,0.1-0.7,0.6-0.6,1c0.1,0.7,0.4,1.4,0.9,1.8c0.2,0.2,0.5,0.3,0.7,0.6c0.3,0.4,0.1,0.9-0.1,1.3c-0.2,0.4-0.3,0.6-0.1,1.1
			c1.4,4.4,2.3,9,3.7,13.4c0.1,0.2,0.1,0.4,0.2,0.5l0.7,2.6c0.1,0.4,0.6,0.7,1,0.6l8.5-2.3C147.7,86.4,148.1,85.8,147.9,85.2z"/>
		<path class="st9" d="M135.2,62.9l-4.3,1.2c-0.9,0.6-1.3,1.4-1.1,2.5c0.2,0.9,0.3,2,1.1,2.6c0.2,0.2,0.5,0.3,0.7,0.6
			c0.3,0.4,0.1,0.9-0.1,1.3c-0.2,0.4-0.3,0.6-0.1,1.1c1.4,4.4,2.3,9,3.7,13.4c0.2,0.5,0.4,1.1,0.9,1.4c1,0.6,2.8-0.3,3.8-0.6
			l2.2-0.6c1-0.3,3-0.4,3.6-1.5c0.3-0.5,0.1-1.1,0-1.7c-1.1-4.5-2.7-8.9-3.9-13.4c-0.1-0.5-0.3-0.6-0.7-0.9
			c-0.4-0.2-0.8-0.5-0.8-1.1c0-0.3,0.2-0.6,0.3-0.8c0.3-0.9-0.1-2-0.4-2.8c-0.4-1-1.1-1.5-2.2-1.5l-5.6,1.6"/>
		<path class="st5" d="M125,48.9c-0.9-2-2.4-4.8-5-7.5c-4-4.2-8.4-5.9-10.8-6.7"/>
		<path class="st5" d="M110.8,27c4.2,2,7.1,4.4,8.8,6c5.5,5.2,7.9,10.9,9.5,14.6c1.2,3,2,5.6,2.4,7.3"/>
		<path class="st5" d="M119.9,27.1c1,0.6,2.3,1.4,3.6,2.8c2.3,2.5,3.1,5.2,3.7,7.4c1.5,5.4,2.7,10.4,3.6,14.9"/>
		<path class="st5" d="M128.6,32.6c0.8,1.3,1.7,2.9,2.4,4.8c1.1,2.9,1.6,5.6,1.7,7.6"/>
		<path class="st5" d="M133.5,37.9c0.2-0.7,0.6-1.7,0.8-3c0.6-2.9,0.4-4.1,0.8-5.5c0.4-1.3,1.4-3,4.4-4.7"/>
		<path class="st5" d="M148.2,23.1c-3.5,2.9-5.8,5.8-7.2,7.9c-0.7,1.1-4,6-5.6,13.3c-0.8,3.8-1,7.1-1,9.3"/>
		<path class="st5" d="M142,45.5c-0.9,0.9-2.2,2.3-3.3,4.4c-1.1,2.1-1.6,4.1-1.7,5.4"/>
		<path class="st5" d="M101.9,31.6c-0.1,0.3-0.4,1.1-2.4,2.1c-1.7,0.8-5.4,2-6.2,0.8c-0.6-0.9,0.7-2.8,1.8-3.8
			c1.8-1.6,4.8-2.6,6.2-1.3C101.9,29.9,102.1,30.8,101.9,31.6z"/>
		<path class="st5" d="M106.7,20c-0.3,0.4-1.7-0.1-4.3-1.1c-3.6-1.4-4.6-2.4-5.2-3.1c-0.3-0.4-1.4-1.8-1-2.6
			c0.5-0.9,2.5-0.5,2.9-0.4c0.5,0.1,2.3,0.5,4.6,2.7C104.9,16.7,107.3,19.3,106.7,20z"/>
		<path class="st5" d="M118.9,19c-1.9,0-3.4-1-4-2.4c-0.4-1-0.4-2.5,0.4-3.1c1.2-0.8,3.5,0.8,4.5,1.6c1.3,1.1,2,2.5,2.6,3.6
			c0.4,0.8,0.7,1.5,0.9,2"/>
		<path class="st5" d="M130.1,22.2c0-1.1,0.1-2.6,0.7-4.4c0.4-1.3,1.5-4.1,4.1-6.4c0.4-0.4,3.7-3.3,5.2-2.4c0.7,0.4,0.7,1.5,0.7,1.7
			c0,0.3,0,1.4-1.5,3.1c-0.7,0.8-2.1,2.1-4.4,3.1"/>
		<path class="st5" d="M145.4,15.8c0-0.4,0.2-2.4,2-3.8c1.5-1.2,3.1-1.2,3.5-1.2"/>
		<path class="st5" d="M151.1,17.4c2.4-2.3,4.7-3.8,6.4-4.8c3.5-2.1,6.5-3.1,9.2-3.5c1.4-0.2,4-0.5,4.5,0.5c0.3,0.7-0.2,1.6-0.5,2
			c-2.2,3.5-9.7,5-12.2,5.4"/>
		<path class="st5" d="M148.3,35.9c1.6-1.9,3.2-3.1,4.4-3.8c1.3-0.8,3.5-2.2,6.5-2.3c0.8,0,3.5-0.2,4,1c0.4,0.9-0.9,2.2-1,2.3
			c-1.3,1.3-3.3,1.3-4.9,1.3c-0.9,0-2.1-0.1-3.5-0.5"/>
		<path class="st5" d="M148.7,44.6c0.3-0.4,1.5-2.1,3.6-2.6c1.1-0.3,2.1-0.1,2.7,0"/>
		<path class="st5" d="M89.6,22.3c0.3-0.2,2.7-1.6,5.4-0.6c1.8,0.7,2.7,2.2,2.9,2.6"/>
		<path class="st9" d="M148.3,50.4c0.1-0.2,0.3-0.7,1.6-1.2c1.1-0.4,3.5-1.1,4-0.3c0.3,0.6-0.6,1.8-1.3,2.4
			c-1.2,0.9-3.1,1.5-3.9,0.6C148.3,51.5,148.2,50.9,148.3,50.4z"/>
		<path class="st5" d="M158.2,38.6c1.1,0,3.3,0,5.7,1.1c2.7,1.3,4.3,3.2,4.9,4.2"/>
		<path class="st5" d="M156.5,23.7c0.8-0.5,4.1-2.5,8.6-1.8c5.4,0.9,8,5.3,8.3,5.9"/>
	</g>
</g>
<g id="Layer_2">
</g>
</svg>
