<?xml version="1.0" encoding="utf-8"?>
<!-- Generator: Adobe Illustrator 19.1.0, SVG Export Plug-In . SVG Version: 6.00 Build 0)  -->
<svg version="1.1" xmlns="http://www.w3.org/2000/svg" xmlns:xlink="http://www.w3.org/1999/xlink" x="0px" y="0px"
	 viewBox="0 0 240 220" style="enable-background:new 0 0 240 220;" xml:space="preserve">
<style type="text/css">
	.st0{fill:#FACD66;}
	.st1{fill:#F8F9FA;}
	.st2{fill:#55B599;}
	.st3{fill:#F29699;}
	.st4{fill:#6CC3D5;}
	.st5{fill:none;stroke:#707070;stroke-linecap:round;stroke-miterlimit:10;}
	.st6{fill:#FFFFFF;}
	.st7{fill:#5DCC9D;}
	.st8{fill:#F0754F;}
	.st9{fill:none;stroke:#707070;stroke-miterlimit:10;}
	.st10{fill:#707070;}
	.st11{fill:none;stroke:#231F20;stroke-miterlimit:10;}
	.st12{fill:none;stroke:#8895A7;stroke-miterlimit:10;}
	.st13{fill:#707070;stroke:#231F20;stroke-width:2;stroke-miterlimit:10;}
	.st14{fill:#F3969A;}
	.st15{stroke:#707070;stroke-linecap:round;stroke-miterlimit:10;}
	.st16{fill:#6CC3D5;stroke:#707070;stroke-width:2;stroke-miterlimit:10;}
	.st17{fill:#F8F9FA;stroke:#707070;stroke-width:0;stroke-miterlimit:10;}
	.st18{fill:#F8F9FA;stroke:#F8F9FA;stroke-miterlimit:10;}
	.st19{fill:#707070;stroke:#707070;stroke-miterlimit:10;}
	.st20{fill:#DBEAF9;}
	.st21{fill:none;stroke:#FACD66;stroke-width:3;stroke-linecap:round;stroke-miterlimit:10;}
	.st22{fill:none;stroke:#F8F9FA;stroke-width:0.3;stroke-linecap:round;stroke-miterlimit:10;}
	.st23{fill:#F0754F;stroke:#707070;stroke-linecap:round;stroke-miterlimit:10;}
	.st24{fill:#F0754F;stroke:#707070;stroke-miterlimit:10;}
	.st25{fill:#F29699;stroke:#707070;stroke-miterlimit:10;}
	.st26{fill:#F0754F;stroke:#231F20;stroke-linecap:round;stroke-miterlimit:10;}
	.st27{fill:#707070;stroke:#707070;stroke-linecap:round;stroke-miterlimit:10;}
	.st28{fill:#F8F9FA;stroke:#707070;stroke-miterlimit:10;}
	.st29{fill:#EE6356;}
	.st30{fill:none;stroke:#6D6A69;stroke-linecap:round;stroke-miterlimit:10;}
	.st31{fill:#F9D6DA;}
	.st32{fill:none;stroke:#DC8537;stroke-miterlimit:10;}
	.st33{fill:none;stroke:#F29699;stroke-width:2;stroke-miterlimit:10;}
</style>
<g id="Layer_1">
	<circle class="st0" cx="123.7" cy="110.4" r="80.7"/>
	<path class="st5" d="M153.5,139.4c3.5,0.8,10,0.3,11.5,4.6c0.4,1,0.7,2.7,0.2,3.7c0,0.1-0.3,0.5-0.6,1.2c0,0-0.1,0.2-0.2,0.4
		c-0.2,0.5-1,3.2-0.1,3.9c0.4,0.3,0.6-0.1,1.2,0.2c1,0.5,1,1.9,1.2,1.9c0.2,0,0.2-1.5-0.2-3.4c-0.3-1.1-0.6-2-0.9-2.6"/>
	<path class="st1" d="M206.8,194.3c0.6,0.6,2.2,1.5,2.8,1.6c3.3,0.5,5.2,0.3,5.2,0.3c5.1,0.1,7-1.4,7.4-2c0.4-0.6-0.4-3.8-0.4-4.1
		c-0.1-1-0.1-1.3-0.3-2.5c-0.4-2.2,1-3.3,0.9-5.6c0-1.1,0.4-1.8,0.3-2.6c0-0.7,0.2-3.8,0.1-4.5c-0.3-2.2-1.4-3.2-2.3-3.9
		c-1-0.7-0.9-0.2-2.6-1.1c-0.8-0.4-0.8-0.3-1.6-0.6c-0.4-0.2-1.9,0.2-1.3-0.1c1.5-0.8,2.4-2,2.9-2.9c0.2-0.3,1.1-1.7,1.4-3.7
		c0.1-0.9,0.5-3.1-0.7-5.1c-1.5-2.5-1.2-2.3-2.3-3.8c-0.4-0.6,0.9,1.5,1.3,0.6c1.1-2.7,1.7-5.8,1.4-7.6c-0.3-1.6-5.3-7.7-8.1-10.6
		c-3.8-3.8-8.4-4.4-10.1-4.6c-0.7-0.1-3.1-0.3-6.2,0.2c-1.1,0.2-2.3,0.4-3.7,1c-0.4,0.2-3.6,2-6.2,5.1c-1.8,2.1-2.1,2.6-3.9,4.2
		c-1.7,1.5-2,2.5-3,2.5c-0.9,0-1.3-0.9-2.6-1.8c-1.5-1.1-1.1-1.2-2.3-1.9c-1.5-0.9-3.4-1.8-4.2-1.9c-0.9-0.1-2.2,0.1-3.3,0.6
		c-0.6,0.2-2.5,1.6-2.9,2.4c-0.4,0.8,0.5,2.5,1.1,2.8c0.5,0.3,0.9-0.1,1.8,0.2c0,0,1.2-0.8,1.7-0.3c1.5,1.4,3.8,8,5.3,11.3
		c0.8,1.7,1.8,3.9,3.8,6.2c1.3,1.4,2.8,2.6,3.2,2.9c1.7,1.3,2.8,1.1,3.5,2.4c0.5,0.9,0.8,2.1,0.2,3.1c-0.3,0.5-0.7,0.8-1,1
		c0,0-1.7,1-4.1,3.2c-1.2,1-0.5,0.9-3.6,5.4c-1,1.4-2,4.6-1.7,5.5c0.3,0.9,1.1,0.1,1.8,0.3c1.1,0.5,2.2-0.8,5.1-0.5
		c1.6,0.2,2.1,0.3,2.3,0.6c0.2,0.4-0.2,0.7-0.9,2c-0.4,0.7-0.7,1.7-1.4,3.6c-0.4,1.2-0.5,1.6-0.3,2c0.2,0.4,0.7,0.6,1.5,0.7
		c2.2,0.5,4.8,0.4,4.8,0.4c2.6,0.3,2.7,0,3.3,0c1.2,0,2.4,0.4,3.1,0.2c0.5-0.1,1.6,0.5,2.9-1.3c0.7-1,0.3-3.1,0.9-5.4
		c0.3-1.2,0.8-1.4,1-1.6c0.9-0.6,3.6,0,2.5,2.4c-0.6,1.2-2.6,2.6-1.3,2.9c0.5,0.1,4.1,1.4,4.5,1.4l3-0.6h1L206.8,194.3z"/>
	<path class="st4" d="M44.1,85.5c-1-0.1-2.3-0.2-4-0.1c-1,0.1-4.3,0.4-9.2,3c-3.3,1.8-2.9,2.2-7.5,5c-3.3,2-5,3-7,3.3
		c-0.8,0.1-4.2,0.6-7.6-1.1c-2.3-1.2-3.7-2.9-4.1-2.6c-0.3,0.3,0.3,1.5,0.5,2.1c2.6,5.3,5.8,8.3,5.8,8.3c2.2,2.1,5.3,5.1,10.4,6.6
		c2.3,0.7,5,1.5,8.2,0.6c2.1-0.6,4.8-2,7-4c1.4-1.3,3.3-3.4,5.4-3.2c0.3,0,1.7,0.1,1.8-0.1c0.1-0.3,0.6-2.1-0.5-3.2
		c-0.2-0.2-2.2-0.4-3.1-2.9c-0.3-0.9-1-2-0.9-2.5c0.3-1.7,0.1-3.3,1-4.3c0.9-0.9,2.9-2.7,4.1-4.7"/>
	<path class="st1" d="M215.6,137.8c0.3,0.9,0.9,1.3,1.9,2.2c0.4,0.4,1.3,1.5,2.9,3.8c1.7,2.3,2.1,3,1.8,3.5
		c-0.2,0.4-0.7,0.5-1.1,0.6c-3.2,0.6-6.1-0.1-6.5-0.1c-2-0.4-2.1-0.7-4.2-1.1c-0.4-0.1-1.5-0.3-2.9-0.4c-1.8-0.2-2.3-0.1-3.6-0.2
		c-0.6-0.1-3.2-0.3-6.1-1.4c-0.3-0.1-1.4-0.6-3.7-1.7c-1.7-0.8-2.2-1.1-3.2-1.5c-0.6-0.2-1-0.4-3.2-1.2c-3.9-1.4-4.4-1.6-5.2-2
		c-2.4-1.5-2.7-2-2.7-2.3c0-0.5,0.4-0.9,0.8-1.3c0.8-0.7,1.5-0.9,3.1-1.5c1.8-0.7,1.4-0.7,2.3-1c1.5-0.5,2.7-0.5,3.8-1.2
		c0.2-0.2,0.5-0.4,0.8-0.7c0.4-0.5,0.5-1,0.5-1.2c0.3-1.1,1.2-2.1,2.3-3.6c1.6-2.3,2.2-3.6,2.2-3.7c0,0,0.1-0.2,0.2-0.3
		c0.3-0.3,0.7-0.3,0.9-0.3c1.9,0,4,0.3,4,0.3c0.8,0.1,0.7,0.1,1.2,0.2c0.6,0.1,2.2,0.4,4.5,1c0.5,0.2,2.1,0.7,5.1,1.8
		c0,0,1.6,0.6,4.1,2.3c0.1,0.1,0.3,0.2,0.4,0.5c0.2,0.4,0.2,0.8,0.2,0.9c-0.3,3.4,0.4,1.4-0.5,7.6
		C215.5,136.6,215.4,137.2,215.6,137.8z"/>
	<path class="st6" d="M195.5,38.5c0,1.2,0.2,2.4,0.4,3.7c0.4,3.4-0.2,6.9-0.8,10.2c-0.3,1.7-0.5,3.9-1.5,5.4
		c-0.5-0.3-0.9-0.8-1.4-1.3c-3.4-3.8-6.2-8.1-8.6-12.5L195.5,38.5z"/>
	<path class="st6" d="M210.4,29.1c1,5.4,1.7,10.2,2.6,15.7c0.1,0.6,0.5,2.3,0,2.9c-0.4,0.5-1.5-0.4-1.7-0.7c-2-1.8-4-3.5-5.8-5.5
		c-1.7-1.9-3.3-3.9-4.8-6L210.4,29.1z"/>
	<path class="st1" d="M162.6,49.9l5.9-1.2l6.6-1.7c0.2,1.6,0.4,4.6,0.3,6.7c-0.1,3.4-0.5,6.1-1.1,8.3l-0.4,1
		c-2.2-1.4-5.5-4.8-8.1-8.2C164.7,53.3,163.3,51.1,162.6,49.9"/>
	<path class="st7" d="M164.1,49.3l5.9-1.2l6.6-1.7c0.2,1.6,0.4,4.6,0.3,6.7c-0.1,3.4-0.5,6.1-1.1,8.3l-0.4,1
		c-2.2-1.4-5.5-4.8-8.1-8.2C166.2,52.8,164.8,50.6,164.1,49.3"/>
	<path class="st8" d="M197.2,37.6c0,1.2,0.2,2.4,0.4,3.7c0.4,3.4-0.2,6.9-0.8,10.2c-0.3,1.7-0.5,3.9-1.5,5.4
		c-0.5-0.3-0.9-0.8-1.4-1.3c-3.4-3.8-6.2-8.1-8.6-12.5L197.2,37.6z"/>
	<path class="st3" d="M211.8,28.4c1,5.4,1.7,10.2,2.6,15.7c0.1,0.6,0.5,2.3,0,2.9c-0.4,0.5-1.5-0.4-1.7-0.7c-2-1.8-4-3.5-5.8-5.5
		c-1.7-1.9-3.3-3.9-4.8-6L211.8,28.4z"/>
	<path class="st1" d="M152.9,51.5c-1.5,5-3.1,9.9-4.6,14.9l-0.4,1.2c-1.7-2.4-3.1-5.1-4.2-7.8c-0.6-1.4-1.1-2.8-1.6-4.2
		c-0.2-0.6-0.4-1.3-0.8-1.9c-0.1-0.1-0.8-1.6-0.9-1.6L152.9,51.5z"/>
	<path class="st1" d="M131.1,51.7c-0.4,1.2-1.3,3.3-1.7,4.5c-1.4,3.6-3,7.2-4.2,10.8c-1.2-0.9-1.9-2.2-2.7-3.4
		c-0.9-1.4-1.6-2.8-2.3-4.2c-1.5-2.9-2.7-5.6-4-8.6L131.1,51.7z"/>
	<path class="st4" d="M132.8,51.7c-0.4,1.2-1.3,3.3-1.7,4.5c-1.4,3.6-3,7.2-4.2,10.8c-1.2-0.9-1.9-2.2-2.7-3.4
		c-0.9-1.4-1.6-2.8-2.3-4.2c-1.5-2.9-2.7-5.6-4-8.6L132.8,51.7z"/>
	<path class="st1" d="M109,49.6c-1.6,2.9-2.8,5.9-4.3,8.8c-0.4,0.7-2.2,4.8-3.2,4.8c-1,0-2.5-6-2.7-6.7c-0.9-3.2-1.5-6.4-2.5-9.6
		L109,49.6z"/>
	<path class="st3" d="M111.1,50.1c-1.6,2.9-2.8,5.9-4.3,8.8c-0.4,0.7-2.2,4.8-3.2,4.8c-1,0-2.5-6-2.7-6.7c-0.9-3.2-1.5-6.4-2.5-9.6
		L111.1,50.1z"/>
	<path class="st9" d="M208.8,69.1c-6.1,3-13.7,5.8-25,7c-19.4,2.1-34.6,2.4-47.5,0.7c-12.6-1.7-30.1-4.5-46.8-12.3
		C68.8,54.9,59.9,40.3,51,29.2"/>
	<path class="st1" d="M72.2,39.7l13.1,4.6c-1.6,2.4-3.3,4.7-5.1,7.1c-1.6,2.1-3,4.5-5.1,6.1c-0.6-2.1-0.8-4.4-1.2-6.6
		c-0.6-3.6-1.1-7.2-1.7-10.7"/>
	<path class="st1" d="M67.4,38.2c-2.5,2.3-5.4,6.3-7.8,8.7c-0.6,0.6-4.7,5-5.4,3c-0.1-0.3-0.1-0.7-0.1-1c0.2-5.4,1-11.5,1.7-16.8
		L67.4,38.2z"/>
	<path class="st8" d="M74.1,40.4L87.4,45c-1.7,2.4-3.4,4.8-5.1,7.2c-1.6,2.2-3.1,4.6-5.2,6.2c-0.6-2.2-0.8-4.5-1.2-6.7
		c-0.6-3.6-1.1-7.3-1.7-10.9"/>
	<path class="st7" d="M68.8,39c-2.5,2.3-5.4,6.3-7.8,8.7c-0.6,0.6-4.7,5-5.4,3c-0.1-0.3-0.1-0.7-0.1-1c0.2-5.4,1-11.5,1.7-16.8
		L68.8,39z"/>
	<path class="st5" d="M45,82.6c-1-0.2-2.3-0.3-4-0.2c-1,0-4.3,0.3-9.3,2.8c-3.4,1.7-2.9,2.1-7.6,4.8c-3.3,1.9-5,2.8-7.1,3.1
		c-0.8,0.1-4.2,0.5-7.5-1.3c-2.3-1.2-3.6-3-4.1-2.7c-0.3,0.3,0.2,1.5,0.5,2.1c2.5,5.4,5.5,8.5,5.5,8.5c2.2,2.2,5.2,5.3,10.2,6.9
		c2.3,0.7,5,1.6,8.2,0.8c2.1-0.5,4.9-1.9,7.1-3.8c1.5-1.2,3.4-3.3,5.5-3.1c0.3,0,0.9,0.1,1-0.1c0.1-0.3-1.2-0.7-2.2-1.9
		c-0.2-0.2-1.9-2-1.7-4.6c0.1-1,0.4-1.7,0.6-2.2c0.7-1.6,1.6-2.4,2.6-3.4c0.9-0.9,2.1-2.3,3.4-4.2"/>
	<path class="st5" d="M166.9,143.3c-0.3,1.2-1.5,2.1-2.8,1.9c-1.1-0.2-1.9-1.3-1.8-2.4c0.1-1.1,1-2,2-2.6c2.3-1.4,4.7-1.2,7.1,0
		c1.7,0.9,3,2.2,4.4,3.4c0.3,0.3,0.6,0.5,1,0.7c1.1,0.4,2.1-0.7,2.8-1.4c1.2-1.1,2.2-2.2,3.2-3.5c0.4-0.5,0.8-1,1.2-1.5
		c0.1-0.1,0.4-0.5,0.4-0.6c3.8-5.4,11-6.3,11.8-6.4c4.2-0.5,7.5,0.9,9,1.5c1.8,0.8,6.2,2.6,8.6,7.4c1.6,3.1,4.5,5.5,4.7,6.9
		c0.4,1.9,0.3,6.5-1.6,8.1"/>
	<path class="st5" d="M166.6,144.3c1.2,0.5,2,3.2,2.5,4.3c1.4,2.9,2.6,5.9,4.1,8.8c1.4,2.8,2.9,5.7,5.6,7.6c1.8,1.3,3.8,2.4,4.9,4.4
		c2.3,4.1,1.9,9.7,1.9,14.2"/>
	<path class="st5" d="M182.7,171c-1.6,1-2.8,2-3.6,2.7c-3.3,2.9-5.8,7.1-6.6,11.5c0,0.2-0.1,0.5,0.1,0.7c0.6,1,3,0.2,3.9,0.1
		c2-0.4,3.6-0.5,5.6-0.1"/>
	<path class="st5" d="M189.1,163.5c-0.5,2.6,0.2,5.1,2.2,6.9c1.6,1.5,3.7,2.3,5.9,2.7c6.4,1.3,13.9-0.2,18.7-4.7
		c2.5-2.4,4.1-5.5,3.4-9.1c-0.4-1.9-1.4-3.6-2.7-4.9c-1.2-1.1-2.7-2.1-4.3-2.4c-1.8-0.3-3.7,0.2-5-1.4"/>
	<path class="st5" d="M204.5,154c1.4-0.1,2.4,0.4,2.8,0.6c2.3,1.3,2.8,4.3,2.9,5.2c0.1,0.7,0.1,1.3,0.1,1.7"/>
	<path class="st5" d="M176.1,144.1c-0.1,0-0.5,0-0.8,0.1c-0.7,0.4-0.7,1.2-0.7,1.2"/>
	<path class="st5" d="M177.9,144.4c0,0.3,0,0.7,0.1,1.2c0.3,1.1,1,1.8,1.3,2"/>
	<path class="st5" d="M183.1,168.4c0.2,0.1,1.2,0.7,1.7,0.8c0.4,0.1,1.2-0.3,1.4-0.3"/>
	<path class="st5" d="M199.7,188.1c-0.1,0.8-0.4,1.5-0.9,2.1c-0.4,0.6-1.8,1.4-0.7,2c2.2,1.2,4.8,1.5,7.3,0.9"/>
	<ellipse transform="matrix(0.8989 0.4381 -0.4381 0.8989 84.0465 -65.5124)" class="st10" cx="184" cy="149.4" rx="0.7" ry="0.9"/>
	<path class="st8" d="M218.7,138.6c0.5,0.5,1.4,1.7,2.1,2.5c1.2,1.3,1.2,1.8,2.2,3.2c0.4,0.6,2.1,2.6,1.7,3.5
		c-0.4,0.8-0.9,1.7-2,1.8c-2,0.2-4,0.7-6,0.3c-2-0.4-3.8-1.1-5.9-1.4c-3.3-0.4-6.8-0.1-10-1.1c-3-1-6-2-8.9-3.2
		c-3.1-1.3-6.5-2.3-9.4-4.2c-0.5-0.3-1.8-1.1-2.1-1.6c-0.5-0.8,1-2.2,1.6-2.9c0.7-0.9,2-1.2,3.1-1.7c1.7-0.7,3.5-1.3,5.3-1.8
		c0.6-0.2,1.2-0.5,1.8-0.8c1.2-0.6,0.9-1.9,1.5-3c0.6-1.1,1.5-2.1,2.2-3.2c0.3-0.5,0.6-1.3,1-1.8c0.4-0.5,0.7-0.2,1.2-0.2
		c2.5,0,4.9,0.3,7.3,0.8c2.2,0.5,4.2,1.7,6.4,2.5c1.7,0.6,3.5,1.3,5.2,2.1c0.4,0.2,0.9,0.2,1.1,0.6c0.1,0.2,0.1,0.7,0.1,1
		c0,1.5-0.1,2.7-0.3,4.2c-0.2,1.4-0.1,1.2-0.1,2.6C217.9,137.3,218.4,138.3,218.7,138.6z"/>
	<path class="st9" d="M215.8,137.7c0.3,0.9,0.9,1.3,1.9,2.2c0.4,0.4,1.3,1.5,2.9,3.8c1.7,2.3,2.1,3,1.8,3.5
		c-0.2,0.4-0.7,0.5-1.1,0.6c-3.2,0.6-6.1-0.1-6.5-0.1c-2-0.4-2.1-0.7-4.2-1.1c-0.4-0.1-1.5-0.3-2.9-0.4c-1.8-0.2-2.3-0.1-3.6-0.2
		c-0.6-0.1-3.2-0.3-6.1-1.4c-0.3-0.1-1.4-0.6-3.7-1.7c-1.7-0.8-2.2-1.1-3.2-1.5c-0.6-0.2-1-0.4-3.2-1.2c-3.9-1.4-4.4-1.6-5.2-2
		c-2.4-1.5-2.7-2-2.7-2.3c0-0.5,0.4-0.9,0.8-1.3c0.8-0.7,1.5-0.9,3.1-1.5c1.8-0.7,1.4-0.7,2.3-1c1.5-0.5,2.7-0.5,3.8-1.2
		c0.2-0.2,0.5-0.4,0.8-0.7c0.4-0.5,0.5-1,0.5-1.2c0.3-1.1,1.2-2.1,2.3-3.6c1.6-2.3,2.2-3.6,2.2-3.7c0,0,0.1-0.2,0.2-0.3
		c0.3-0.3,0.7-0.3,0.9-0.3c1.9,0,4,0.3,4,0.3c0.8,0.1,0.7,0.1,1.2,0.2c0.6,0.1,2.2,0.4,4.5,1c0.5,0.2,2.1,0.7,5.1,1.8
		c0,0,1.6,0.6,4.1,2.3c0.1,0.1,0.3,0.2,0.4,0.5c0.2,0.4,0.2,0.8,0.2,0.9c-0.3,3.4,0.4,1.4-0.5,7.6
		C215.7,136.5,215.6,137,215.8,137.7z"/>
	<path class="st9" d="M215.8,137.4c-0.9-0.1-2.8-0.2-4.2-0.4c-2.2-0.3-5.7-0.9-9.7-2c-3.1-0.9-7.4-2.6-11.6-4.7"/>
	<path class="st9" d="M216,134.9c-2.7-0.3-5.4-0.8-7.1-1.2c-5.8-1.2-10.1-2.7-11.9-3.4c-2-0.8-4.4-1.9-5.6-2.4"/>
	<circle class="st9" cx="206.8" cy="130.8" r="1"/>
	<circle class="st9" cx="202.1" cy="129.5" r="1"/>
	<path class="st5" d="M195.1,146.6c-0.5,1.1-0.7,1.5-1.8,3.3c-2.3,3.7-4.9,6.1-7.1,8.2c-1.6,1.5-2.9,2.5-4.5,3.8
		c-4.4,3.5-5.1,4.7-6.6,4.8c-0.3,0-1.3,0.1-1.8,0.8c-0.4,0.5-0.5,1.1-0.5,1.5"/>
	<path class="st5" d="M175.1,171.2c0-1.2-0.2-2-0.3-2.6c-0.4-1.3-0.8-1.5-0.9-2.6c0-0.3-0.2-1.3-0.2-2.3v0c0-0.4,0.1-0.8,0.2-1.1
		c0.1-0.3,0.2-0.3,0.3-0.5"/>
	
		<ellipse transform="matrix(-0.9557 -0.2944 0.2944 -0.9557 291.4108 378.0667)" class="st10" cx="174.2" cy="167.1" rx="1" ry="1.3"/>
	<path class="st22" d="M174,166.5c0,0-0.4,0.3-0.4,0.8c0,0.3,0.1,0.5,0.2,0.5"/>
	<path class="st19" d="M50,28.4c-0.8-0.2-2.1-0.3-3.6,0c-2.9,0.6-5.6,2.6-5.4,3.4c0.1,0.2,0.3,0.3,0.9,0.4c0.9,0.3,1.7,0.3,2.6,0.1
		c2-0.4,3.3-1.5,4-2.1c0.6-0.5,1.1-1,1.4-1.4"/>
	<path class="st9" d="M51.1,28.6c0.1,0.7,0.3,1.7,0.1,2.9c-0.2,2-1.1,3.3-1.8,4.5c-0.1,0.2-2.2,3.4-2.9,3.1c-0.1,0-0.3-0.2-0.2-1.9
		c0.1-1.8,0.2-3.6,1.3-5.7c0.9-1.7,1.9-2.9,2.7-3.6"/>
	<path class="st9" d="M50.7,27.8c-0.4,0-0.9-0.8-0.7-1.4c0.1-0.3,0.2-0.4,0.5-0.6c0.1-0.1,0.8-0.7,1.1-0.4c0.2,0.1,0.2,0.3,0.2,0.4
		c0.1,0.5-0.1,1-0.3,1.3C51.3,27.4,51.1,27.8,50.7,27.8z"/>
	<path class="st9" d="M55.5,31.7c-0.7,5.3-1.5,11.4-1.7,16.8c0,0.3,0,0.7,0.1,1c0.7,2,4.8-2.4,5.4-3c2.4-2.4,5.3-6.4,7.8-8.7"/>
	<path class="st9" d="M85.3,44c-1.6,2.4-3.3,4.7-5.1,7.1c-1.6,2.1-3,4.5-5.1,6.1c-0.6-2.1-0.8-4.4-1.2-6.6
		c-0.6-3.6-1.1-7.2-1.7-10.7"/>
	<path class="st9" d="M96.3,46.8c1,3.2,1.6,6.4,2.5,9.6c0.2,0.8,1.7,6.7,2.7,6.7c0.9,0,2.8-4.1,3.2-4.8c1.5-2.9,2.7-6,4.3-8.8"/>
	<path class="st9" d="M130.9,51.6c-0.4,1.2-1.3,3.3-1.7,4.5c-1.4,3.6-3,7.2-4.2,10.8c-1.2-0.9-1.9-2.2-2.7-3.4
		c-0.9-1.4-1.6-2.8-2.3-4.2c-1.5-2.9-2.7-5.6-4-8.6L130.9,51.6z"/>
	<path class="st9" d="M162.3,49.7c0.7,1.3,2.1,3.5,3.2,4.9c2.6,3.4,5.9,6.8,8.1,8.2l0.4-1c0.6-2.2,1-5,1.1-8.3
		c0.1-2.1-0.1-5.1-0.3-6.7"/>
	<path class="st9" d="M183.5,43.9c2.4,4.5,5.2,8.8,8.6,12.5c0.4,0.4,0.9,1,1.4,1.3c0.9-1.5,1.1-3.7,1.5-5.4
		c0.7-3.3,1.2-6.8,0.8-10.2c-0.1-1.2-0.4-2.4-0.4-3.7"/>
	<path class="st9" d="M200.6,35.5c1.4,2.1,3,4.2,4.8,6c1.8,2,3.9,3.7,5.8,5.5c0.3,0.2,1.4,1.2,1.7,0.7c0.5-0.6,0.1-2.3,0-2.9
		c-1-5.4-1.7-10.3-2.6-15.7"/>
	<path class="st9" d="M215.2,24.1c-0.2-0.7-0.5-1.4-0.7-1.6c-0.1-0.2-0.4-0.4-0.6-0.8c-0.1-0.2-0.2-0.5-0.1-0.7
		c0.1-0.4,0.7-0.4,1.2-0.5c0.4-0.1,0.7-0.1,0.9,0.1c0.2,0.2,0.1,0.7,0,1.2c-0.1,0.5-0.5,1.9-0.7,2.2"/>
	<path class="st19" d="M215.2,24C215.3,24,215.3,24,215.2,24c1.2-1.3,2.2-2.2,3-2.8c0,0,1.7-1.3,6.4-3.1c0.2-0.1,0.6-0.2,0.8-0.1
		c0.2,0.2-0.1,0.6-0.1,0.8c-0.8,1.6-3.5,3.6-3.8,3.8c-2.5,1.8-2.9,2.1-3.8,2.2c-1,0.2-1.8,0.1-2.4-0.1L215.2,24z"/>
	<path class="st9" d="M215.7,24.7c0,0.2,0.6,0.2,1.4,0.6c1.8,0.9,1.6,2.6,3.1,2.7c0.1,0,1.3,0.4,1.7,0.4c2.8,0.1,2.7-0.4,2.8-0.6
		c0.1-0.2-0.5-0.6-0.9-1c-0.9-0.6-1.7-1-2.5-1.3c-1.8-0.7-2.8-1.1-3.5-1.1C216.8,24.4,215.7,24.5,215.7,24.7z"/>
	<path class="st19" d="M209.4,69.4c0.9,0,2.2,0.1,3.6,0.8c2.8,1.2,5,3.8,4.6,4.5c-0.1,0.2-0.4,0.2-1,0.2c-0.9,0.1-1.8-0.1-2.6-0.5
		c-1.9-0.8-3-2.2-3.5-2.9c-0.5-0.7-0.8-1.2-1-1.7"/>
	<path class="st9" d="M208.3,69.2c-0.3,0.6-0.6,1.6-0.8,2.9c-0.2,2,0.3,3.5,0.8,4.9c0.1,0.2,1.4,3.9,2.2,3.7c0.1,0,0.4-0.1,0.6-1.8
		c0.3-1.8,0.5-3.6-0.1-5.9c-0.5-1.9-1.3-3.3-1.9-4.1"/>
	<path class="st9" d="M208.8,68.6c0.4,0.1,1.1-0.6,1-1.2c0-0.3-0.2-0.5-0.3-0.7c-0.1-0.1-0.6-0.8-1-0.7c-0.2,0.1-0.3,0.2-0.3,0.3
		c-0.3,0.5-0.1,1,0,1.3C208.4,68.1,208.5,68.6,208.8,68.6z"/>
	<circle class="st28" cx="68.1" cy="50.4" r="2.4"/>
	<circle class="st28" cx="87.1" cy="64" r="2.4"/>
	<circle class="st28" cx="108.3" cy="72" r="2.4"/>
	<circle class="st28" cx="130.9" cy="76.6" r="2.4"/>
	<circle class="st28" cx="152.2" cy="78" r="2.4"/>
	<circle class="st28" cx="177.1" cy="77.1" r="2.4"/>
	<circle class="st28" cx="196.6" cy="74" r="2.4"/>
	<path class="st29" d="M154.6,51.3c-1.5,5-3.1,9.9-4.6,14.9l-0.4,1.2c-1.7-2.4-3.1-5.1-4.2-7.8c-0.6-1.4-1.1-2.8-1.6-4.2
		c-0.2-0.6-0.4-1.3-0.8-1.9c-0.1-0.1-0.8-1.6-0.9-1.6L154.6,51.3z"/>
	<path class="st5" d="M50.7,28.3c5.2,4.2,12,8.4,22.6,12c18.3,6.1,32.9,9.6,45.7,10.6c12.5,1,29.9,2,47.7-2.1
		c21.9-5,35.5-13.2,46.4-22.1"/>
	<path class="st9" d="M153,51.2c-1.5,5-3.1,9.9-4.6,14.9l-0.4,1.2c-1.7-2.4-3.1-5.1-4.2-7.8c-0.6-1.4-1.1-2.8-1.6-4.2
		c-0.2-0.6-0.4-1.3-0.8-1.9c-0.1-0.1-0.8-1.6-0.9-1.6L153,51.2z"/>
	<polyline class="st9" points="174.8,46.7 168.1,48.5 162.3,49.7 	"/>
	<path class="st22" d="M223.4,84.5c0,0-0.4,0.3-0.4,0.8c0,0.3,0.1,0.5,0.2,0.5"/>
	<g>
		<path class="st6" d="M28.9,95.4c0.7-0.3,1.4-0.4,2-0.2c0.7,0.2,1.2,0.6,1.5,1.3c0.2,0.5,0.2,1.1,0,1.7c-0.2,0.4-0.5,0.8-0.9,1
			l3,1.5c0.5-1.2,0.5-2.5,0.1-3.8c-1-2.6-3.9-3.9-6.5-2.9c-1.4,0.5-2.4,1.6-2.9,2.9L28.9,95.4z"/>
		<path class="st6" d="M29,99.2l0.9,2.3c0.1,0.3,0,0.6-0.3,0.8c-0.3,0.1-0.6,0-0.8-0.3l-1.3-3.4c-0.1-0.3,0-0.6,0.2-0.8
			c0.2-0.2,0.5-0.2,0.8-0.1l1.6,0.8c0.6-0.2,1.1-0.5,1.2-0.9c0.1-0.2,0.1-0.5,0-0.7c-0.1-0.3-0.4-0.5-0.7-0.6
			c-0.4-0.1-0.8,0-1.4,0.2l-4.5,1.7c0,0,0,0,0,0c-0.1,0.7,0,1.5,0.3,2.2c1,2.6,3.9,3.9,6.5,2.9c0.9-0.4,1.7-1,2.2-1.7L29,99.2z"/>
	</g>
	<path class="st1" d="M54.5,118.8c-1,0.1-1.8,0.1-3.6-0.1c-2.6-0.3-3.9-0.4-4.4-0.5c-2.9-0.6-2.9-1.3-4.9-1.4
		c-0.7,0-1.8,0.1-3.9,0.3c-1.7,0.2-2.6,0.3-3,0.5c-2,1-2.7,3.3-2.8,3.8c-0.2,0.9-0.9,3.1,0.5,4.8c1.1,1.4,2.8,1.6,3,1.6
		c2,0.2,3.7-1.2,3.8-1.3c0.7-0.6,1.1-1.3,1.5-1.2c0.3,0.1,0.3,0.6,0.4,1.1c0.1,0.6,0.4,1.3,2.1,2.7c2.7,2.3,6.2,4.3,10.4,7
		c1.5,1,2.9,1.9,4.8,1.9c0.7,0,1.5-0.6,2.8-0.5c1.2,0.1,1.7,0.4,1.9,0.5c0.6,0.4,0.7,0.9,1.1,1.5c0.6,1,1.5,1.5,2.6,2.2
		c0.9,0.5,2.7,1.6,4.8,1.4c1.8-0.2,2.8-1.2,4-0.6c0.4,0.2,0.6,0.5,1,0.8c0.9,1,2.3,2,3.9,2.7c1.1,0.5,1.5,0.4,2,0.9
		c0.7,0.8,0.5,1.9,0.5,2.3c-0.2,1.2-0.8,2.1-1.7,3.2c-1.5,1.8-2.8,2.9-3.8,3.9c-0.2,0.1-2.1,2-3.5,3.7c-1.6,1.9-4.2,5-5.3,9.5
		c-0.4,1.5-0.4,2.6-0.5,4.5c-0.1,4.3,0.6,7.2,1.6,11.1c0.3,1.2,0.5,1.9,1.1,2.7c0.1,0.1,2,2.6,4.7,2.6c1.7,0,2.7-0.9,3.3-0.3
		c0.4,0.4,0.1,0.8,0.4,1.5c0.4,1.1,1.5,1.6,2.1,1.9c3.3,1.7,9.5,1.7,9.5,1.7c5.9,0,5.1-0.8,12.9-1.7c0.6-0.1,1.8-0.2,2.7-1.1
		c1-0.9,1.2-2.3,1.4-3.9c0.1-1,0.3-3-0.2-5.4c-0.2-1-0.6-2.4-0.7-4.5c-0.1-1-0.1-1.7,0.3-1.9c0.4-0.2,1,0.2,1.7,0.6
		c0.5,0.3,3.4,2.1,6.2,2.1c1.6,0,2.7-0.7,3.1-0.1c0.2,0.3,0.1,0.8-0.1,1.3c-0.8,2.6-1.5,4.1-1.5,4.1c-1.3,2.7-2,4-2,4.1
		c-0.1,0.2-0.4,0.6-0.5,1.1c-0.1,1,0.5,1.9,0.7,2.2c0.8,1,1.9,1.4,2.6,1.6c3.8,1.1,5.5-0.6,9.2,0.5c0.4,0.1,1.1,0.4,2.6,1
		c3.9,1.6,3.9,1.9,5.2,2.2c2.7,0.6,5.1-0.1,6.2-0.5c1.6-0.5,2.2-1,4.4-1.5c0.9-0.2,1.7-0.4,2.7-0.5c2.1-0.1,2.8,0.3,4.8-0.1
		c1-0.2,1.6-0.3,2.1-0.7c0.9-0.8,1-2,0.9-4.1c-0.2-3.6-0.8-4.9-1.1-8.4c-0.1-1.3-0.3-2.8-0.2-4.6c0.1-3.3,0.9-5.4,1.5-7.4
		c0.7-2.6,0.9-5.3,1.1-10.7c0-0.9,0.5-9.7-1.4-16.1c-0.3-0.9-0.7-2.3-1.9-3.5c-0.6-0.7-1.8-1.3-4.1-2.5c-4-2-6-3-6.9-3.1
		c-0.1,0-0.6,0-0.7-0.3c-0.2-0.4,0.4-1.2,0.6-1.4c0.8-1,1-2.6,1.4-5.8c0.3-2.5,0.6-5.4-0.3-8.8c-1.3-4.8-4.3-7.9-5.7-9.1
		c-2.1-1.8-5.5-4.9-8.5-4.3c-0.5,0.1-2,0.5-2.8-0.3c-0.5-0.4-0.5-1.1-0.6-1.2c-0.3-2.3-4.3-8-6.2-10.3c-4.8-5.8-11.2-8.2-13.6-9.2
		c-4.8-1.8-8.5-2-12.9-2.3c-6.4-0.4-8.9,0.5-10,1c-1.9,0.9-3.3,2-5.7,4.5c-5.1,5.4-9.2,9.8-12.1,16.8c-1.4,3.6-2.6,5.9-4.8,10.5
		c-0.5,1.1-1.6,3.3-3.8,4.3C56,118.6,54.8,118.8,54.5,118.8z"/>
	<line class="st5" x1="40.8" y1="119.2" x2="46.4" y2="80.7"/>
	<line class="st5" x1="38.1" y1="138.1" x2="39.7" y2="126.9"/>
	<path class="st10" d="M52.3,29.2c0.1,0.7,0.3,1.7,0.1,2.9c-0.2,2-1.1,3.3-1.8,4.5c-0.1,0.2-2.2,3.4-2.9,3.1c-0.1,0-0.3-0.2-0.2-1.9
		c0.1-1.8,0.2-3.6,1.3-5.7c0.9-1.7,1.9-2.9,2.7-3.6"/>
	<path class="st10" d="M208.7,69.8c-0.2,0.7-0.3,1.7-0.2,3c0.2,2,1,3.4,1.7,4.6c0.1,0.2,2.1,3.5,2.9,3.2c0.1,0,0.3-0.2,0.3-1.9
		c-0.1-1.9-0.2-3.6-1.2-5.8c-0.8-1.7-1.9-2.9-2.7-3.7"/>
	<path class="st10" d="M214.8,24.9c0,0.2,0.4,0.9,1.2,1.3c1.8,0.9,1.6,2.6,3.1,2.7c0.1,0,1.3,0.4,1.7,0.4c2.8,0.1,2.7-0.4,2.8-0.6
		c0.1-0.2-0.5-0.6-0.9-1c-0.9-0.6-1.7-1-2.5-1.3c-1.8-0.7-2.8-1.1-3.5-1.1C215.7,25.2,214.8,24.7,214.8,24.9z"/>
	<path class="st5" d="M88.2,84c0.2-0.5,1-2.2,0.7-3.9c-0.5-2.3-2.7-2.8-3.1-2.9"/>
	<path class="st5" d="M92.5,79.5c-0.3,0.1-0.9,0.4-1.3,0.9c-0.9,1-0.9,2.3-0.8,2.6"/>
	<path class="st9" d="M132.7,117.1c0.5,0.6,3.8,5.2,2.4,10.9c-1.2,4.8-5.3,8.6-10.5,9.5"/>
</g>
<g id="Layer_2">
	<path class="st5" d="M71.3,131.6c0.1,1.3,0.5,7.4,5.4,11.9c6,5.6,13.8,4.4,15,4.2c4.9-0.8,8.1-3.5,9.4-4.7"/>
	<path class="st5" d="M62.2,123c0-0.6,0.1-1.7-0.5-2.9c-0.7-1.7-2.7-2.9-3.1-3.1"/>
	<path class="st5" d="M35.7,121.2c0-0.1,0.8-2.1,2.7-2.4c0.2,0,1.5-0.2,2.4,0.6c0.7,0.7,0.8,1.6,0.9,2.5c0,0.6,0.1,1.9-0.6,3.2
		c-1.1,2-3.2,2.5-3.7,2.7c-0.6,0.2-2.9,0.7-4.3-0.6c-1-0.9-1.1-2.2-1.2-3.8c-0.1-1.4-0.2-2.7,0.6-4c1.1-1.9,3.4-2.5,4.3-2.7
		c1.1-0.2,2.1-0.2,5.2,0.3c3.4,0.6,3.8,0.9,6.3,1.3c3.9,0.7,6,1,8,0.1c1.5-0.7,2.4-1.7,3.5-3.1c2.1-2.6,2.8-4.8,3.8-7.4
		c1-2.5,2.4-4.8,5.2-9.3c2.1-3.5,3.8-6.3,6.6-9.6c4.6-5.4,7.4-6.6,8.7-7.1c0.8-0.3,2-0.6,4.7-0.9c3.5-0.3,8.6-0.8,14.9,1
		c8.1,2.3,13.2,6.9,14.6,8.3c4.7,4.5,7.4,10.4,8.6,13.3"/>
	<path class="st5" d="M117.8,104.1c1.1-0.1,2.8-0.3,4.7-0.3c2.7,0,6.5,0,9.9,1.2c6.2,2.2,9.3,8,10,9.3c3.9,7.5,1.4,15.1,0.6,17.7
		c-0.7,2.1-4.2,12.9-15.2,16.8c-9.2,3.2-16.9-0.6-21.8-3.1c-5.2-2.6-6.5-5.2-6.9-6.3c-0.6-1.5-0.7-3-0.7-4.7c-0.1-3.3,0.3-6,0.7-7.8
		"/>
	<path class="st9" d="M83,150.8c-0.8,0.8-3,3.2-4.4,4.7c-3.6,3.8-5.4,5.7-6.3,7c-1.3,1.9-3.9,5.6-4.1,10.7c0,0.8,0.1,0.1,0.7,5.9
		c0.6,5.5,0.8,7.8,2.6,9.5c0.6,0.6,1.2,0.8,1.9,1.2c2.7,1.3,4,1.1,5.5,1"/>
	<path class="st9" d="M82.4,146.9c0.1,0.6,0.8,3.3,0.8,4.6c0,2.8-0.7,4.6-1.8,8.2c0,0-0.7,2.4-1.3,5.1c-0.8,3.6-0.7,5.7-0.9,11.7
		c-0.3,11.6-1,15.2,1.5,16.9c0.3,0.2,0.9,0.4,1.9,0.7c2.3,0.7,4.6,1.1,8.9,1c3.2,0,5.7-0.4,10.7-1c1.9-0.3,4-0.6,5.1-2.2
		c0.4-0.6,0.5-1.2,0.7-2.2c0.6-3.3,0.1-6.2-0.3-7.8c-0.6-2.4-1.1-3-0.9-4.5c0.2-1.5,0.9-2.5,1.2-2.9c1.1-1.7,2.3-4.6,2.6-10"/>
	<path class="st9" d="M125.1,169.1c0.7,1.3,1.7,3.4,2.3,6.2c1.1,4.9,0.4,9.3,0.3,10.1c-0.7,4.4-2.2,6.8-0.7,8.5
		c0.3,0.3,0.8,0.6,1.9,1.2c2.2,1.1,3.8,2,6,2.3c2.5,0.4,4.5,0,5.7-0.3c2.8-0.6,3-1.4,5.6-1.8c1.2-0.2,1,0,4.5-0.1
		c2.8-0.1,3.6-0.3,4.3-0.9c0.3-0.3,0.8-0.9,1-2.9c0.3-2.5-0.2-4.1-1.2-9.4c-0.4-2-0.4-2.6-0.4-3.4c0-2.4,0.5-4.1,0.7-4.8
		c0.6-2,0.9-4.6,1.6-9.8c0.6-4.8,0.4-8.4,0-13.3c-0.6-8.2-1.8-9.8-2.3-10.4c-1.6-1.8-4.1-3-6.2-4c-1.9-0.9-4.9-2.2-6.1-2.6"/>
	<path class="st9" d="M107,176.8c1.8,0.8,5.6,2.4,8.9,2.7c1.1,0.1,3.7,0.3,7-0.3c1.6-0.3,4-1,5.1-1.4"/>
	<path class="st9" d="M127.7,194.3c-2.4,0.1-6,0.3-7.4,0c-3.3-0.5-4.4-1.4-5-2.1c-0.8-0.9-0.9-1.6-0.9-1.8c-0.1-0.8,0.3-1.4,1-2.5
		c1.3-2.1,2-4,2.6-5.6c0.3-0.7,0.7-2.7,0.8-3.1"/>
	<path class="st5" d="M55.8,118.6c-0.1,0.1-1.1,1.2-1.3,1.4c-0.5,0.7-0.5,1.4-0.4,1.7"/>
	<path class="st9" d="M40.5,125.7c0.4,0.6,1.7,2.5,2.6,3.4c1.2,1.3,2.5,2.4,7.3,5.2c5.7,3.2,7,3.5,7.9,3.7c1.6,0.3,3.3-0.9,4.8,0.1
		c0.6,0.4,0.6,0.8,1.3,1.6c1.9,2.4,4.7,3.2,5.3,3.4c2.1,0.6,5,0.1,6-0.2"/>
	<ellipse class="st10" cx="79.6" cy="121.6" rx="0.9" ry="1.3"/>
	<path class="st5" d="M223,176.4c1.4-0.2,2.8-0.2,4-1.2c0.8-0.7,1.4-1.6,1.5-2.7c0.1-0.8-0.1-1.5-0.1-2.3c0-0.5,0-1.1,0.2-1.5
		c0.4-0.7,0.8-0.3,1.4-0.5c0.7-0.3,1.3-1.5,1,0.1c-0.2,0.9-0.7,1.8-1.4,2.4"/>
	<path class="st5" d="M184.2,179.4c-1.2,4.5-2.9,8.6-4.7,12.9c-0.7,1.7,0.5,2.3,2.1,2.4c1.8,0.1,8.6,0.5,10.4,0.5
		c3.2,0,2.7-0.8,3.6-4.1c0.6-2.2-0.5-4.6,2.2-4.4c1.6,0.1,5.1-0.3,6.7,0.1c3.2,0.6,3,3.5,2.3,6c-1.4,5.2,11.9,3.5,14.4,2.3
		c2.2-1,0.4-4.5,0.2-6.1c-0.3-2,0.7-4.4,1-6.4c0.4-2.3,0.6-4.7,0.2-7.1c-0.3-2-0.6-3.7-2.6-4.6c-1.7-0.8-3-1.2-4.7-1.8"/>
</g>
</svg>
