<?xml version="1.0" encoding="utf-8"?>
<!-- Generator: Adobe Illustrator 19.1.0, SVG Export Plug-In . SVG Version: 6.00 Build 0)  -->
<svg version="1.1" id="Layer_1" xmlns="http://www.w3.org/2000/svg" xmlns:xlink="http://www.w3.org/1999/xlink" x="0px" y="0px"
	 viewBox="0 0 288 288" style="enable-background:new 0 0 288 288;" xml:space="preserve">
<style type="text/css">
	.st0{fill:#D33D16;}
	.st1{fill:#F7373A;}
	.st2{fill:none;}
	.st3{fill:none;stroke:#B24698;stroke-width:11.52;stroke-miterlimit:10;}
	.st4{fill:#B24698;}
	.st5{fill:none;stroke:#000000;stroke-miterlimit:10;}
	.st6{fill:#FFFFFF;}
	.st7{fill:#FFFFFF;stroke:#FFFFFF;stroke-miterlimit:10;}
	.st8{fill:#FFFFFF;stroke:#FFFFFF;stroke-width:13.68;stroke-miterlimit:10;}
	.st9{fill:none;stroke:#000000;stroke-width:13.68;stroke-miterlimit:10;}
	.st10{fill:none;stroke:#F7373A;stroke-miterlimit:10;}
	.st11{fill:none;stroke:#BA4F6D;stroke-width:0.72;stroke-miterlimit:10;}
	.st12{fill:none;stroke:#BA4F6D;stroke-width:50.4;stroke-linecap:round;stroke-miterlimit:10;}
	.st13{fill:none;stroke:#BA4F6D;stroke-width:9;stroke-miterlimit:10;}
	.st14{fill:none;stroke:#BA4F6D;stroke-width:50.4;stroke-miterlimit:10;}
	.st15{fill:#FCFCFC;}
	.st16{fill:#E84236;}
	.st17{fill:#F7373A;stroke:#F7373A;stroke-width:9;stroke-miterlimit:10;}
	.st18{fill:none;stroke:#F7373A;stroke-width:50.4;stroke-miterlimit:10;}
	.st19{fill:#FCFCFC;stroke:#FFFFFF;stroke-width:27;stroke-miterlimit:10;}
	.st20{fill:none;stroke:#F7373A;stroke-width:36;stroke-miterlimit:10;}
	.st21{fill:url(#SVGID_1_);}
	.st22{fill:#1C75BC;}
	.st23{fill:#2B3990;}
	.st24{fill:#BE1E2D;}
	.st25{fill:#5D5D5D;}
	.st26{fill:#DD4739;}
	.st27{fill:#DF5846;}
	.st28{fill:url(#SVGID_2_);}
	.st29{fill:url(#SVGID_3_);}
	.st30{fill:url(#SVGID_4_);}
	.st31{fill:url(#SVGID_5_);}
	.st32{fill:#B23C39;}
	.st33{fill:url(#SVGID_6_);}
</style>
<g>
	<path class="st6" d="M149.7,52.2c21.8,0,40.6,4.8,54.5,13.8c16.8,10.9,26.1,27.3,27.1,47.6c0.7,15.8-5.5,30.7-17.5,42
		c-9.1,8.5-20.8,14.3-34.4,17.2l61.6,66.8c23.9-24.8,38.5-58.5,38.5-95.6c0-76.1-61.7-137.9-137.9-137.9
		c-40.9,0-77.6,17.8-102.8,46.1H149.7z"/>
	<path class="st6" d="M115.8,151.1V220c0,8.9-7.2,16.1-16.1,16.1s-16.1-7.2-16.1-16.1V119c0-8.1,4.9-15.3,12.5-18.3
		c7.6-3,16-1,21.5,5l33.8,36.7c17.2,1.4,31.8-2.3,40.4-10.3c5.1-4.8,7.7-10.7,7.4-17c-0.5-9.9-4.4-17-12.5-22.2
		c-8.7-5.6-21.5-8.6-37.1-8.6H17.8c-0.1,0-0.2,0-0.3,0C8.8,102.3,3.9,122.6,3.9,144c0,76.1,61.7,137.9,137.9,137.9
		c27.4,0,53-8,74.5-21.8L115.8,151.1z"/>
</g>
</svg>
