<?xml version="1.0" encoding="utf-8"?>
<!-- Generator: Adobe Illustrator 19.1.0, SVG Export Plug-In . SVG Version: 6.00 Build 0)  -->
<svg version="1.1" id="Layer_1" xmlns="http://www.w3.org/2000/svg" xmlns:xlink="http://www.w3.org/1999/xlink" x="0px" y="0px"
	 viewBox="0 0 79.1 95.9" style="enable-background:new 0 0 79.1 95.9;" xml:space="preserve">
<style type="text/css">
	.st0{fill:#F3969A;}
	.st1{fill:#DC8537;}
	.st2{fill:none;stroke:#F3969A;stroke-miterlimit:10;}
	.st3{fill:none;stroke:#F3969A;stroke-linecap:round;stroke-miterlimit:10;}
	.st4{fill:#55B599;}
	.st5{fill:#6CC3D5;}
	.st6{fill:#F29699;}
	.st7{fill:#F8F9FA;}
	.st8{fill:#FFFFFF;}
	.st9{fill:#EE6356;}
	.st10{fill:#EDC233;}
</style>
<g>
	<path class="st5" d="M71.2,34.1c-6.1-1.1-11.8-3.9-16.3-8.5c-4.6-4.6-7.4-10.3-8.5-16.3c6.1-3.8,15-2.5,21.2,3.7
		C73.7,19.1,75.1,28,71.2,34.1z M67,38.4c-5.8-1.6-11.3-4.6-15.7-9.1c-4.5-4.5-7.5-9.9-9.1-15.7c-3.8,6.1-2.5,15,3.7,21.2
		C52,40.8,60.9,42.2,67,38.4z M42.7,65.6c-7.6,0-13.1,4.8-17.9,9c-5.3,4.7-9.9,8.7-16.7,6.6c-1.3-1-1.4-1.8-1.4-2.1
		c-0.1-1.8,2.1-4.3,3.2-5.2c0.1-0.1,0.2-0.3,0.3-0.4c1.8,0.6,3.9,0.3,5.3-1.2l34.8-28.7c-2.9-1.2-5.6-3-8-5.4
		c-2.4-2.4-4.2-5.1-5.4-8L8.2,65.1c-1.3,1.3-1.6,3-1.3,4.7c-0.1,0.1-0.2,0.1-0.3,0.2c-0.5,0.4-5.3,4.5-5.1,9.4
		c0.1,1.7,0.8,4.2,3.9,6.3L6,85.9c2,0.7,3.8,1,5.6,1c6.8,0,11.9-4.4,16.5-8.5c4.5-4,8.8-7.7,14.6-7.7c13.2,0,23.4,14.1,23.5,14.3
		c0.8,1.2,2.4,1.4,3.6,0.6c1.2-0.8,1.4-2.4,0.6-3.6C69.9,81.4,58.5,65.6,42.7,65.6z"/>
</g>
</svg>
