<?xml version="1.0" encoding="utf-8"?>
<!-- Generator: Adobe Illustrator 19.1.0, SVG Export Plug-In . SVG Version: 6.00 Build 0)  -->
<svg version="1.1" id="Layer_1" xmlns="http://www.w3.org/2000/svg" xmlns:xlink="http://www.w3.org/1999/xlink" x="0px" y="0px"
	 viewBox="0 0 79.1 95.9" style="enable-background:new 0 0 79.1 95.9;" xml:space="preserve">
<style type="text/css">
	.st0{fill:#F3969A;}
	.st1{fill:#DC8537;}
	.st2{fill:none;stroke:#F3969A;stroke-miterlimit:10;}
	.st3{fill:none;stroke:#F3969A;stroke-linecap:round;stroke-miterlimit:10;}
	.st4{fill:#55B599;}
	.st5{fill:#489AD8;}
	.st6{fill:#F29699;}
	.st7{fill:#6CC3D5;}
	.st8{fill:#F8F9FA;}
	.st9{fill:#FFFFFF;}
	.st10{fill:#EE6356;}
	.st11{fill:#EDC233;}
</style>
<path class="st0" d="M71.9,19.6C65.8,9.5,54.3,1.7,42.3,1.4c-0.9,0-1.7-0.1-2.6-0.1l0,0c-0.8,0-1.7,0-2.6,0.1
	c-12,0.3-23.5,8.1-29.6,18.2c-4.7,7.8-6.4,17.3-5,26.3c1.4,8.8,6.6,16.7,12.3,23.4c7.6,8.9,16.8,16.1,24.9,24.5v0c0,0,0,0,0,0
	c0,0,0,0,0,0v0c8.1-8.4,17.3-15.6,24.9-24.5c5.7-6.7,10.8-14.6,12.3-23.4C78.3,36.9,76.6,27.4,71.9,19.6z M39.7,61.5
	c-12.8,0-23.2-10.4-23.2-23.2s10.4-23.2,23.2-23.2c12.8,0,23.2,10.4,23.2,23.2S52.4,61.5,39.7,61.5z"/>
<g>
	<path class="st0" d="M52,34.1c-2.2-0.4-4.3-1.4-5.9-3.1c-1.6-1.6-2.7-3.7-3.1-5.9c2.2-1.4,5.4-0.9,7.6,1.3
		C52.9,28.7,53.4,31.9,52,34.1z M50.4,35.6c-2.1-0.6-4.1-1.7-5.7-3.3c-1.6-1.6-2.7-3.6-3.3-5.7c-1.4,2.2-0.9,5.4,1.3,7.6
		C45,36.5,48.2,37,50.4,35.6z M41.7,45.5c-2.8,0-4.7,1.7-6.5,3.2c-1.9,1.7-3.6,3.1-6,2.4c-0.5-0.4-0.5-0.6-0.5-0.7
		c0-0.7,0.8-1.6,1.2-1.9c0,0,0.1-0.1,0.1-0.1c0.6,0.2,1.4,0.1,1.9-0.4l12.6-10.4c-1-0.4-2-1.1-2.9-1.9c-0.9-0.9-1.5-1.9-1.9-2.9
		L29.2,45.3c-0.5,0.5-0.6,1.1-0.5,1.7c0,0-0.1,0-0.1,0.1c-0.2,0.2-1.9,1.6-1.8,3.4c0,0.6,0.3,1.5,1.4,2.3l0.2,0.1
		c0.7,0.2,1.4,0.3,2,0.3c2.5,0,4.3-1.6,6-3.1c1.6-1.4,3.2-2.8,5.3-2.8c4.8,0,8.5,5.1,8.5,5.2c0.3,0.4,0.9,0.5,1.3,0.2
		c0.4-0.3,0.5-0.9,0.2-1.3C51.5,51.1,47.4,45.5,41.7,45.5z"/>
</g>
</svg>
